<mxfile host="Electron" modified="2025-02-02T15:39:20.849Z" agent="Mozilla/5.0 (Windows NT 10.0; Win64; x64) AppleWebKit/537.36 (KHTML, like Gecko) draw.io/24.2.5 Chrome/120.0.6099.109 Electron/28.1.0 Safari/537.36" etag="QeAQuaKVkwGXOL3JO932" version="24.2.5" type="device">
  <diagram id="5bwadO8CDnKJTHHlVYnr" name="шаблоны">
    <mxGraphModel dx="4839" dy="1722" grid="1" gridSize="10" guides="1" tooltips="1" connect="1" arrows="1" fold="1" page="1" pageScale="1" pageWidth="827" pageHeight="1169" math="0" shadow="0">
      <root>
        <mxCell id="0" />
        <object label="Explanation" id="Lpu7ZFHDR6guZjh7hP34-41">
          <mxCell parent="0" />
        </object>
        <mxCell id="Lpu7ZFHDR6guZjh7hP34-77" value="Уровни развития улицы.&lt;div&gt;&lt;br&gt;&lt;/div&gt;&lt;div&gt;MAX = L № 6 - максимальный уровнь развития улицы, который открывает возможности для уникального строительства&lt;br&gt;&lt;/div&gt;" style="text;html=1;align=center;verticalAlign=middle;whiteSpace=wrap;rounded=0;fillColor=#ffff88;strokeColor=#36393d;horizontal=1;spacing=10;" parent="Lpu7ZFHDR6guZjh7hP34-41" vertex="1">
          <mxGeometry x="-618.91" y="240" width="170" height="165" as="geometry" />
        </mxCell>
        <mxCell id="Lpu7ZFHDR6guZjh7hP34-79" value="Иконки классов сооружений, доступных для постройки по достижению максимального уровня" style="text;html=1;align=center;verticalAlign=middle;whiteSpace=wrap;rounded=0;fillColor=#ffff88;strokeColor=#36393d;horizontal=1;spacing=10;" parent="Lpu7ZFHDR6guZjh7hP34-41" vertex="1">
          <mxGeometry x="-641" y="809" width="214.19" height="80" as="geometry" />
        </mxCell>
        <mxCell id="Lpu7ZFHDR6guZjh7hP34-80" value="Иконки катастроф, распространяющихся на эту улицу" style="text;html=1;align=center;verticalAlign=middle;whiteSpace=wrap;rounded=0;fillColor=#ffff88;strokeColor=#36393d;horizontal=1;spacing=10;" parent="Lpu7ZFHDR6guZjh7hP34-41" vertex="1">
          <mxGeometry x="-401" y="809" width="214.19" height="80" as="geometry" />
        </mxCell>
        <mxCell id="Lpu7ZFHDR6guZjh7hP34-81" value="Стоимость посещения улицы игроками и/или NPC" style="text;html=1;align=center;verticalAlign=middle;whiteSpace=wrap;rounded=0;fillColor=#ffff88;strokeColor=#36393d;horizontal=1;spacing=10;" parent="Lpu7ZFHDR6guZjh7hP34-41" vertex="1">
          <mxGeometry x="-441" y="355" width="214.19" height="50" as="geometry" />
        </mxCell>
        <mxCell id="Lpu7ZFHDR6guZjh7hP34-102" value="НАЗВАНИЕ УЛИЦЫ&amp;nbsp;№2" style="swimlane;whiteSpace=wrap;html=1;strokeWidth=3;startSize=41;fontSize=14;" parent="Lpu7ZFHDR6guZjh7hP34-41" vertex="1">
          <mxGeometry x="282" y="4.999999999999909" width="263" height="380.15" as="geometry" />
        </mxCell>
        <mxCell id="Lpu7ZFHDR6guZjh7hP34-103" value="&lt;font style=&quot;font-size: 20px;&quot;&gt;L0&lt;/font&gt;" style="text;html=1;align=center;verticalAlign=middle;whiteSpace=wrap;rounded=1;strokeColor=default;arcSize=4;spacing=6;strokeWidth=2;fontSize=20;" parent="Lpu7ZFHDR6guZjh7hP34-102" vertex="1">
          <mxGeometry x="10" y="49.15" width="60" height="30" as="geometry" />
        </mxCell>
        <mxCell id="Lpu7ZFHDR6guZjh7hP34-104" value="&lt;font style=&quot;font-size: 20px;&quot;&gt;L1&lt;/font&gt;" style="text;html=1;align=center;verticalAlign=middle;whiteSpace=wrap;rounded=1;strokeColor=default;arcSize=4;spacing=6;strokeWidth=2;fontSize=20;" parent="Lpu7ZFHDR6guZjh7hP34-102" vertex="1">
          <mxGeometry x="10" y="87.15" width="60" height="30" as="geometry" />
        </mxCell>
        <mxCell id="Lpu7ZFHDR6guZjh7hP34-105" value="&lt;font style=&quot;font-size: 20px;&quot;&gt;L2&lt;/font&gt;" style="text;html=1;align=center;verticalAlign=middle;whiteSpace=wrap;rounded=1;strokeColor=default;arcSize=4;spacing=6;strokeWidth=2;fontSize=20;" parent="Lpu7ZFHDR6guZjh7hP34-102" vertex="1">
          <mxGeometry x="10" y="124.15" width="60" height="30" as="geometry" />
        </mxCell>
        <mxCell id="Lpu7ZFHDR6guZjh7hP34-106" value="&lt;font style=&quot;font-size: 20px;&quot;&gt;L3&lt;/font&gt;" style="text;html=1;align=center;verticalAlign=middle;whiteSpace=wrap;rounded=1;strokeColor=default;arcSize=4;spacing=6;strokeWidth=2;fontSize=20;" parent="Lpu7ZFHDR6guZjh7hP34-102" vertex="1">
          <mxGeometry x="10" y="162.15" width="60" height="30" as="geometry" />
        </mxCell>
        <mxCell id="Lpu7ZFHDR6guZjh7hP34-107" value="&lt;font style=&quot;font-size: 20px;&quot;&gt;L4&lt;/font&gt;" style="text;html=1;align=center;verticalAlign=middle;whiteSpace=wrap;rounded=1;strokeColor=default;arcSize=4;spacing=6;strokeWidth=2;fontSize=20;" parent="Lpu7ZFHDR6guZjh7hP34-102" vertex="1">
          <mxGeometry x="10" y="199.15" width="60" height="30" as="geometry" />
        </mxCell>
        <mxCell id="Lpu7ZFHDR6guZjh7hP34-108" value="&lt;font style=&quot;font-size: 20px;&quot;&gt;L5&lt;/font&gt;" style="text;html=1;align=center;verticalAlign=middle;whiteSpace=wrap;rounded=1;strokeColor=default;arcSize=4;spacing=6;strokeWidth=2;fontSize=20;" parent="Lpu7ZFHDR6guZjh7hP34-102" vertex="1">
          <mxGeometry x="10" y="236.15" width="60" height="30" as="geometry" />
        </mxCell>
        <mxCell id="Lpu7ZFHDR6guZjh7hP34-109" value="&lt;span style=&quot;font-size: 20px;&quot;&gt;MAX&lt;/span&gt;" style="text;html=1;align=center;verticalAlign=middle;whiteSpace=wrap;rounded=1;strokeColor=default;arcSize=4;spacing=6;strokeWidth=2;fontSize=20;" parent="Lpu7ZFHDR6guZjh7hP34-102" vertex="1">
          <mxGeometry x="10" y="273.15" width="60" height="30" as="geometry" />
        </mxCell>
        <mxCell id="Lpu7ZFHDR6guZjh7hP34-110" value="" style="rounded=0;whiteSpace=wrap;html=1;aspect=fixed;strokeWidth=1;perimeterSpacing=0;" parent="Lpu7ZFHDR6guZjh7hP34-102" vertex="1">
          <mxGeometry x="208" y="329.1500000000001" width="45" height="45" as="geometry" />
        </mxCell>
        <mxCell id="Lpu7ZFHDR6guZjh7hP34-111" value="" style="rounded=0;whiteSpace=wrap;html=1;aspect=fixed;strokeWidth=1;perimeterSpacing=0;" parent="Lpu7ZFHDR6guZjh7hP34-102" vertex="1">
          <mxGeometry x="118" y="329.1500000000001" width="45" height="45" as="geometry" />
        </mxCell>
        <mxCell id="Lpu7ZFHDR6guZjh7hP34-112" value="" style="rounded=0;whiteSpace=wrap;html=1;aspect=fixed;strokeWidth=1;perimeterSpacing=0;" parent="Lpu7ZFHDR6guZjh7hP34-102" vertex="1">
          <mxGeometry x="163" y="329.1500000000001" width="45" height="45" as="geometry" />
        </mxCell>
        <mxCell id="Lpu7ZFHDR6guZjh7hP34-113" value="" style="rounded=0;whiteSpace=wrap;html=1;aspect=fixed;strokeWidth=1;perimeterSpacing=0;" parent="Lpu7ZFHDR6guZjh7hP34-102" vertex="1">
          <mxGeometry x="51" y="329.1500000000001" width="45" height="45" as="geometry" />
        </mxCell>
        <mxCell id="Lpu7ZFHDR6guZjh7hP34-114" value="" style="rounded=0;whiteSpace=wrap;html=1;aspect=fixed;strokeWidth=1;perimeterSpacing=0;" parent="Lpu7ZFHDR6guZjh7hP34-102" vertex="1">
          <mxGeometry x="6" y="329.1500000000001" width="45" height="45" as="geometry" />
        </mxCell>
        <mxCell id="Lpu7ZFHDR6guZjh7hP34-115" value="описание" style="rounded=0;whiteSpace=wrap;html=1;strokeWidth=2;" parent="Lpu7ZFHDR6guZjh7hP34-102" vertex="1">
          <mxGeometry x="80" y="49.15" width="175" height="29.85" as="geometry" />
        </mxCell>
        <mxCell id="Lpu7ZFHDR6guZjh7hP34-116" value="описание" style="rounded=0;whiteSpace=wrap;html=1;strokeWidth=2;" parent="Lpu7ZFHDR6guZjh7hP34-102" vertex="1">
          <mxGeometry x="80" y="87.3" width="175" height="29.85" as="geometry" />
        </mxCell>
        <mxCell id="Lpu7ZFHDR6guZjh7hP34-117" value="описание" style="rounded=0;whiteSpace=wrap;html=1;strokeWidth=2;" parent="Lpu7ZFHDR6guZjh7hP34-102" vertex="1">
          <mxGeometry x="80" y="124.3" width="175" height="29.85" as="geometry" />
        </mxCell>
        <mxCell id="Lpu7ZFHDR6guZjh7hP34-118" value="описание" style="rounded=0;whiteSpace=wrap;html=1;strokeWidth=2;" parent="Lpu7ZFHDR6guZjh7hP34-102" vertex="1">
          <mxGeometry x="80" y="162.3" width="175" height="29.85" as="geometry" />
        </mxCell>
        <mxCell id="Lpu7ZFHDR6guZjh7hP34-119" value="описание" style="rounded=0;whiteSpace=wrap;html=1;strokeWidth=2;" parent="Lpu7ZFHDR6guZjh7hP34-102" vertex="1">
          <mxGeometry x="80" y="199.3" width="175" height="29.85" as="geometry" />
        </mxCell>
        <mxCell id="Lpu7ZFHDR6guZjh7hP34-120" value="описание" style="rounded=0;whiteSpace=wrap;html=1;strokeWidth=2;" parent="Lpu7ZFHDR6guZjh7hP34-102" vertex="1">
          <mxGeometry x="80" y="236.3" width="175" height="29.85" as="geometry" />
        </mxCell>
        <mxCell id="Lpu7ZFHDR6guZjh7hP34-121" value="описание" style="rounded=0;whiteSpace=wrap;html=1;strokeWidth=2;" parent="Lpu7ZFHDR6guZjh7hP34-102" vertex="1">
          <mxGeometry x="80" y="273.15" width="175" height="29.85" as="geometry" />
        </mxCell>
        <object label="Front Side" id="1">
          <mxCell parent="0" />
        </object>
        <mxCell id="cQ-WbhC2AdRpNKnGHfEH-53" value="НАЗВАНИЕ УЛИЦЫ&amp;nbsp;№X" style="swimlane;whiteSpace=wrap;html=1;strokeWidth=3;startSize=41;fontSize=14;" parent="1" vertex="1">
          <mxGeometry x="-521" y="414.9999999999999" width="263" height="380.15" as="geometry" />
        </mxCell>
        <mxCell id="cQ-WbhC2AdRpNKnGHfEH-96" value="&lt;font style=&quot;font-size: 20px;&quot;&gt;L0&lt;/font&gt;" style="text;html=1;align=center;verticalAlign=middle;whiteSpace=wrap;rounded=1;strokeColor=default;arcSize=4;spacing=6;strokeWidth=2;fontSize=20;" parent="cQ-WbhC2AdRpNKnGHfEH-53" vertex="1">
          <mxGeometry x="10" y="49.15" width="60" height="30" as="geometry" />
        </mxCell>
        <mxCell id="cQ-WbhC2AdRpNKnGHfEH-98" value="&lt;font style=&quot;font-size: 20px;&quot;&gt;L1&lt;/font&gt;" style="text;html=1;align=center;verticalAlign=middle;whiteSpace=wrap;rounded=1;strokeColor=default;arcSize=4;spacing=6;strokeWidth=2;fontSize=20;" parent="cQ-WbhC2AdRpNKnGHfEH-53" vertex="1">
          <mxGeometry x="10" y="87.15" width="60" height="30" as="geometry" />
        </mxCell>
        <mxCell id="cQ-WbhC2AdRpNKnGHfEH-100" value="&lt;font style=&quot;font-size: 20px;&quot;&gt;L2&lt;/font&gt;" style="text;html=1;align=center;verticalAlign=middle;whiteSpace=wrap;rounded=1;strokeColor=default;arcSize=4;spacing=6;strokeWidth=2;fontSize=20;" parent="cQ-WbhC2AdRpNKnGHfEH-53" vertex="1">
          <mxGeometry x="10" y="124.15" width="60" height="30" as="geometry" />
        </mxCell>
        <mxCell id="cQ-WbhC2AdRpNKnGHfEH-102" value="&lt;font style=&quot;font-size: 20px;&quot;&gt;L3&lt;/font&gt;" style="text;html=1;align=center;verticalAlign=middle;whiteSpace=wrap;rounded=1;strokeColor=default;arcSize=4;spacing=6;strokeWidth=2;fontSize=20;" parent="cQ-WbhC2AdRpNKnGHfEH-53" vertex="1">
          <mxGeometry x="10" y="162.15" width="60" height="30" as="geometry" />
        </mxCell>
        <mxCell id="cQ-WbhC2AdRpNKnGHfEH-104" value="&lt;font style=&quot;font-size: 20px;&quot;&gt;L4&lt;/font&gt;" style="text;html=1;align=center;verticalAlign=middle;whiteSpace=wrap;rounded=1;strokeColor=default;arcSize=4;spacing=6;strokeWidth=2;fontSize=20;" parent="cQ-WbhC2AdRpNKnGHfEH-53" vertex="1">
          <mxGeometry x="10" y="199.15" width="60" height="30" as="geometry" />
        </mxCell>
        <mxCell id="cQ-WbhC2AdRpNKnGHfEH-106" value="&lt;font style=&quot;font-size: 20px;&quot;&gt;L5&lt;/font&gt;" style="text;html=1;align=center;verticalAlign=middle;whiteSpace=wrap;rounded=1;strokeColor=default;arcSize=4;spacing=6;strokeWidth=2;fontSize=20;" parent="cQ-WbhC2AdRpNKnGHfEH-53" vertex="1">
          <mxGeometry x="10" y="236.15" width="60" height="30" as="geometry" />
        </mxCell>
        <mxCell id="cQ-WbhC2AdRpNKnGHfEH-108" value="&lt;span style=&quot;font-size: 20px;&quot;&gt;MAX&lt;/span&gt;" style="text;html=1;align=center;verticalAlign=middle;whiteSpace=wrap;rounded=1;strokeColor=default;arcSize=4;spacing=6;strokeWidth=2;fontSize=20;" parent="cQ-WbhC2AdRpNKnGHfEH-53" vertex="1">
          <mxGeometry x="10" y="273.15" width="60" height="30" as="geometry" />
        </mxCell>
        <mxCell id="cQ-WbhC2AdRpNKnGHfEH-109" value="" style="rounded=0;whiteSpace=wrap;html=1;aspect=fixed;strokeWidth=1;perimeterSpacing=0;" parent="cQ-WbhC2AdRpNKnGHfEH-53" vertex="1">
          <mxGeometry x="208" y="329.1500000000001" width="45" height="45" as="geometry" />
        </mxCell>
        <mxCell id="cQ-WbhC2AdRpNKnGHfEH-110" value="" style="rounded=0;whiteSpace=wrap;html=1;aspect=fixed;strokeWidth=1;perimeterSpacing=0;" parent="cQ-WbhC2AdRpNKnGHfEH-53" vertex="1">
          <mxGeometry x="118" y="329.1500000000001" width="45" height="45" as="geometry" />
        </mxCell>
        <mxCell id="cQ-WbhC2AdRpNKnGHfEH-111" value="" style="rounded=0;whiteSpace=wrap;html=1;aspect=fixed;strokeWidth=1;perimeterSpacing=0;" parent="cQ-WbhC2AdRpNKnGHfEH-53" vertex="1">
          <mxGeometry x="163" y="329.1500000000001" width="45" height="45" as="geometry" />
        </mxCell>
        <mxCell id="cQ-WbhC2AdRpNKnGHfEH-112" value="" style="rounded=0;whiteSpace=wrap;html=1;aspect=fixed;strokeWidth=1;perimeterSpacing=0;" parent="cQ-WbhC2AdRpNKnGHfEH-53" vertex="1">
          <mxGeometry x="51" y="329.1500000000001" width="45" height="45" as="geometry" />
        </mxCell>
        <mxCell id="cQ-WbhC2AdRpNKnGHfEH-113" value="" style="rounded=0;whiteSpace=wrap;html=1;aspect=fixed;strokeWidth=1;perimeterSpacing=0;" parent="cQ-WbhC2AdRpNKnGHfEH-53" vertex="1">
          <mxGeometry x="6" y="329.1500000000001" width="45" height="45" as="geometry" />
        </mxCell>
        <mxCell id="cQ-WbhC2AdRpNKnGHfEH-114" value="описание" style="rounded=0;whiteSpace=wrap;html=1;strokeWidth=2;" parent="cQ-WbhC2AdRpNKnGHfEH-53" vertex="1">
          <mxGeometry x="80" y="49.15" width="175" height="29.85" as="geometry" />
        </mxCell>
        <mxCell id="cQ-WbhC2AdRpNKnGHfEH-115" value="описание" style="rounded=0;whiteSpace=wrap;html=1;strokeWidth=2;" parent="cQ-WbhC2AdRpNKnGHfEH-53" vertex="1">
          <mxGeometry x="80" y="87.3" width="175" height="29.85" as="geometry" />
        </mxCell>
        <mxCell id="cQ-WbhC2AdRpNKnGHfEH-116" value="описание" style="rounded=0;whiteSpace=wrap;html=1;strokeWidth=2;" parent="cQ-WbhC2AdRpNKnGHfEH-53" vertex="1">
          <mxGeometry x="80" y="124.3" width="175" height="29.85" as="geometry" />
        </mxCell>
        <mxCell id="cQ-WbhC2AdRpNKnGHfEH-117" value="описание" style="rounded=0;whiteSpace=wrap;html=1;strokeWidth=2;" parent="cQ-WbhC2AdRpNKnGHfEH-53" vertex="1">
          <mxGeometry x="80" y="162.3" width="175" height="29.85" as="geometry" />
        </mxCell>
        <mxCell id="cQ-WbhC2AdRpNKnGHfEH-118" value="описание" style="rounded=0;whiteSpace=wrap;html=1;strokeWidth=2;" parent="cQ-WbhC2AdRpNKnGHfEH-53" vertex="1">
          <mxGeometry x="80" y="199.3" width="175" height="29.85" as="geometry" />
        </mxCell>
        <mxCell id="cQ-WbhC2AdRpNKnGHfEH-119" value="описание" style="rounded=0;whiteSpace=wrap;html=1;strokeWidth=2;" parent="cQ-WbhC2AdRpNKnGHfEH-53" vertex="1">
          <mxGeometry x="80" y="236.3" width="175" height="29.85" as="geometry" />
        </mxCell>
        <mxCell id="cQ-WbhC2AdRpNKnGHfEH-120" value="описание" style="rounded=0;whiteSpace=wrap;html=1;strokeWidth=2;" parent="cQ-WbhC2AdRpNKnGHfEH-53" vertex="1">
          <mxGeometry x="80" y="273.15" width="175" height="29.85" as="geometry" />
        </mxCell>
        <mxCell id="cQ-WbhC2AdRpNKnGHfEH-48" value="НАЗВАНИЕ УЛИЦЫ №1" style="swimlane;whiteSpace=wrap;html=1;strokeWidth=3;startSize=41;fontSize=14;" parent="1" vertex="1">
          <mxGeometry x="6" y="4.849999999999909" width="263" height="380.15" as="geometry" />
        </mxCell>
        <mxCell id="cQ-WbhC2AdRpNKnGHfEH-147" value="&lt;font style=&quot;font-size: 20px;&quot;&gt;L0&lt;/font&gt;" style="text;html=1;align=center;verticalAlign=middle;whiteSpace=wrap;rounded=1;strokeColor=default;arcSize=4;spacing=6;strokeWidth=2;fontSize=20;" parent="cQ-WbhC2AdRpNKnGHfEH-48" vertex="1">
          <mxGeometry x="11" y="49.15" width="60" height="30" as="geometry" />
        </mxCell>
        <mxCell id="cQ-WbhC2AdRpNKnGHfEH-148" value="&lt;font style=&quot;font-size: 20px;&quot;&gt;L1&lt;/font&gt;" style="text;html=1;align=center;verticalAlign=middle;whiteSpace=wrap;rounded=1;strokeColor=default;arcSize=4;spacing=6;strokeWidth=2;fontSize=20;" parent="cQ-WbhC2AdRpNKnGHfEH-48" vertex="1">
          <mxGeometry x="11" y="87.15" width="60" height="30" as="geometry" />
        </mxCell>
        <mxCell id="cQ-WbhC2AdRpNKnGHfEH-149" value="&lt;font style=&quot;font-size: 20px;&quot;&gt;L2&lt;/font&gt;" style="text;html=1;align=center;verticalAlign=middle;whiteSpace=wrap;rounded=1;strokeColor=default;arcSize=4;spacing=6;strokeWidth=2;fontSize=20;" parent="cQ-WbhC2AdRpNKnGHfEH-48" vertex="1">
          <mxGeometry x="11" y="124.15" width="60" height="30" as="geometry" />
        </mxCell>
        <mxCell id="cQ-WbhC2AdRpNKnGHfEH-150" value="&lt;font style=&quot;font-size: 20px;&quot;&gt;L3&lt;/font&gt;" style="text;html=1;align=center;verticalAlign=middle;whiteSpace=wrap;rounded=1;strokeColor=default;arcSize=4;spacing=6;strokeWidth=2;fontSize=20;" parent="cQ-WbhC2AdRpNKnGHfEH-48" vertex="1">
          <mxGeometry x="11" y="162.15" width="60" height="30" as="geometry" />
        </mxCell>
        <mxCell id="cQ-WbhC2AdRpNKnGHfEH-151" value="&lt;font style=&quot;font-size: 20px;&quot;&gt;L4&lt;/font&gt;" style="text;html=1;align=center;verticalAlign=middle;whiteSpace=wrap;rounded=1;strokeColor=default;arcSize=4;spacing=6;strokeWidth=2;fontSize=20;" parent="cQ-WbhC2AdRpNKnGHfEH-48" vertex="1">
          <mxGeometry x="11" y="199.15" width="60" height="30" as="geometry" />
        </mxCell>
        <mxCell id="cQ-WbhC2AdRpNKnGHfEH-152" value="&lt;font style=&quot;font-size: 20px;&quot;&gt;L5&lt;/font&gt;" style="text;html=1;align=center;verticalAlign=middle;whiteSpace=wrap;rounded=1;strokeColor=default;arcSize=4;spacing=6;strokeWidth=2;fontSize=20;" parent="cQ-WbhC2AdRpNKnGHfEH-48" vertex="1">
          <mxGeometry x="11" y="236.15" width="60" height="30" as="geometry" />
        </mxCell>
        <mxCell id="cQ-WbhC2AdRpNKnGHfEH-153" value="&lt;span style=&quot;font-size: 20px;&quot;&gt;MAX&lt;/span&gt;" style="text;html=1;align=center;verticalAlign=middle;whiteSpace=wrap;rounded=1;strokeColor=default;arcSize=4;spacing=6;strokeWidth=2;fontSize=20;" parent="cQ-WbhC2AdRpNKnGHfEH-48" vertex="1">
          <mxGeometry x="11" y="273.15" width="60" height="30" as="geometry" />
        </mxCell>
        <mxCell id="cQ-WbhC2AdRpNKnGHfEH-154" value="" style="rounded=0;whiteSpace=wrap;html=1;aspect=fixed;strokeWidth=1;perimeterSpacing=0;" parent="cQ-WbhC2AdRpNKnGHfEH-48" vertex="1">
          <mxGeometry x="209" y="329.1500000000001" width="45" height="45" as="geometry" />
        </mxCell>
        <mxCell id="cQ-WbhC2AdRpNKnGHfEH-155" value="" style="rounded=0;whiteSpace=wrap;html=1;aspect=fixed;strokeWidth=1;perimeterSpacing=0;" parent="cQ-WbhC2AdRpNKnGHfEH-48" vertex="1">
          <mxGeometry x="119" y="329.1500000000001" width="45" height="45" as="geometry" />
        </mxCell>
        <mxCell id="cQ-WbhC2AdRpNKnGHfEH-156" value="" style="rounded=0;whiteSpace=wrap;html=1;aspect=fixed;strokeWidth=1;perimeterSpacing=0;" parent="cQ-WbhC2AdRpNKnGHfEH-48" vertex="1">
          <mxGeometry x="164" y="329.1500000000001" width="45" height="45" as="geometry" />
        </mxCell>
        <mxCell id="cQ-WbhC2AdRpNKnGHfEH-157" value="" style="rounded=0;whiteSpace=wrap;html=1;aspect=fixed;strokeWidth=1;perimeterSpacing=0;" parent="cQ-WbhC2AdRpNKnGHfEH-48" vertex="1">
          <mxGeometry x="52" y="329.1500000000001" width="45" height="45" as="geometry" />
        </mxCell>
        <mxCell id="cQ-WbhC2AdRpNKnGHfEH-158" value="" style="rounded=0;whiteSpace=wrap;html=1;aspect=fixed;strokeWidth=1;perimeterSpacing=0;" parent="cQ-WbhC2AdRpNKnGHfEH-48" vertex="1">
          <mxGeometry x="7" y="329.1500000000001" width="45" height="45" as="geometry" />
        </mxCell>
        <mxCell id="cQ-WbhC2AdRpNKnGHfEH-159" value="описание" style="rounded=0;whiteSpace=wrap;html=1;strokeWidth=2;" parent="cQ-WbhC2AdRpNKnGHfEH-48" vertex="1">
          <mxGeometry x="81" y="49.15" width="175" height="29.85" as="geometry" />
        </mxCell>
        <mxCell id="cQ-WbhC2AdRpNKnGHfEH-160" value="описание" style="rounded=0;whiteSpace=wrap;html=1;strokeWidth=2;" parent="cQ-WbhC2AdRpNKnGHfEH-48" vertex="1">
          <mxGeometry x="81" y="87.3" width="175" height="29.85" as="geometry" />
        </mxCell>
        <mxCell id="cQ-WbhC2AdRpNKnGHfEH-161" value="описание" style="rounded=0;whiteSpace=wrap;html=1;strokeWidth=2;" parent="cQ-WbhC2AdRpNKnGHfEH-48" vertex="1">
          <mxGeometry x="81" y="124.30000000000001" width="175" height="29.85" as="geometry" />
        </mxCell>
        <mxCell id="cQ-WbhC2AdRpNKnGHfEH-162" value="описание" style="rounded=0;whiteSpace=wrap;html=1;strokeWidth=2;" parent="cQ-WbhC2AdRpNKnGHfEH-48" vertex="1">
          <mxGeometry x="81" y="162.3" width="175" height="29.85" as="geometry" />
        </mxCell>
        <mxCell id="cQ-WbhC2AdRpNKnGHfEH-163" value="описание" style="rounded=0;whiteSpace=wrap;html=1;strokeWidth=2;" parent="cQ-WbhC2AdRpNKnGHfEH-48" vertex="1">
          <mxGeometry x="81" y="199.3" width="175" height="29.85" as="geometry" />
        </mxCell>
        <mxCell id="cQ-WbhC2AdRpNKnGHfEH-164" value="описание" style="rounded=0;whiteSpace=wrap;html=1;strokeWidth=2;" parent="cQ-WbhC2AdRpNKnGHfEH-48" vertex="1">
          <mxGeometry x="81" y="236.3" width="175" height="29.85" as="geometry" />
        </mxCell>
        <mxCell id="cQ-WbhC2AdRpNKnGHfEH-165" value="описание" style="rounded=0;whiteSpace=wrap;html=1;strokeWidth=2;" parent="cQ-WbhC2AdRpNKnGHfEH-48" vertex="1">
          <mxGeometry x="81" y="273.15" width="175" height="29.85" as="geometry" />
        </mxCell>
        <mxCell id="cQ-WbhC2AdRpNKnGHfEH-58" value="НАЗВАНИЕ УЛИЦЫ&amp;nbsp;№3" style="swimlane;whiteSpace=wrap;html=1;strokeWidth=3;startSize=41;fontSize=14;" parent="1" vertex="1">
          <mxGeometry x="556" y="4.849999999999909" width="263" height="380.15" as="geometry" />
        </mxCell>
        <mxCell id="cQ-WbhC2AdRpNKnGHfEH-128" value="&lt;font style=&quot;font-size: 20px;&quot;&gt;L0&lt;/font&gt;" style="text;html=1;align=center;verticalAlign=middle;whiteSpace=wrap;rounded=1;strokeColor=default;arcSize=4;spacing=6;strokeWidth=2;fontSize=20;" parent="cQ-WbhC2AdRpNKnGHfEH-58" vertex="1">
          <mxGeometry x="11" y="49.15" width="60" height="30" as="geometry" />
        </mxCell>
        <mxCell id="cQ-WbhC2AdRpNKnGHfEH-129" value="&lt;font style=&quot;font-size: 20px;&quot;&gt;L1&lt;/font&gt;" style="text;html=1;align=center;verticalAlign=middle;whiteSpace=wrap;rounded=1;strokeColor=default;arcSize=4;spacing=6;strokeWidth=2;fontSize=20;" parent="cQ-WbhC2AdRpNKnGHfEH-58" vertex="1">
          <mxGeometry x="11" y="87.15" width="60" height="30" as="geometry" />
        </mxCell>
        <mxCell id="cQ-WbhC2AdRpNKnGHfEH-130" value="&lt;font style=&quot;font-size: 20px;&quot;&gt;L2&lt;/font&gt;" style="text;html=1;align=center;verticalAlign=middle;whiteSpace=wrap;rounded=1;strokeColor=default;arcSize=4;spacing=6;strokeWidth=2;fontSize=20;" parent="cQ-WbhC2AdRpNKnGHfEH-58" vertex="1">
          <mxGeometry x="11" y="124.15" width="60" height="30" as="geometry" />
        </mxCell>
        <mxCell id="cQ-WbhC2AdRpNKnGHfEH-131" value="&lt;font style=&quot;font-size: 20px;&quot;&gt;L3&lt;/font&gt;" style="text;html=1;align=center;verticalAlign=middle;whiteSpace=wrap;rounded=1;strokeColor=default;arcSize=4;spacing=6;strokeWidth=2;fontSize=20;" parent="cQ-WbhC2AdRpNKnGHfEH-58" vertex="1">
          <mxGeometry x="11" y="162.15" width="60" height="30" as="geometry" />
        </mxCell>
        <mxCell id="cQ-WbhC2AdRpNKnGHfEH-132" value="&lt;font style=&quot;font-size: 20px;&quot;&gt;L4&lt;/font&gt;" style="text;html=1;align=center;verticalAlign=middle;whiteSpace=wrap;rounded=1;strokeColor=default;arcSize=4;spacing=6;strokeWidth=2;fontSize=20;" parent="cQ-WbhC2AdRpNKnGHfEH-58" vertex="1">
          <mxGeometry x="11" y="199.15" width="60" height="30" as="geometry" />
        </mxCell>
        <mxCell id="cQ-WbhC2AdRpNKnGHfEH-133" value="&lt;font style=&quot;font-size: 20px;&quot;&gt;L5&lt;/font&gt;" style="text;html=1;align=center;verticalAlign=middle;whiteSpace=wrap;rounded=1;strokeColor=default;arcSize=4;spacing=6;strokeWidth=2;fontSize=20;" parent="cQ-WbhC2AdRpNKnGHfEH-58" vertex="1">
          <mxGeometry x="11" y="236.15" width="60" height="30" as="geometry" />
        </mxCell>
        <mxCell id="cQ-WbhC2AdRpNKnGHfEH-134" value="&lt;span style=&quot;font-size: 20px;&quot;&gt;MAX&lt;/span&gt;" style="text;html=1;align=center;verticalAlign=middle;whiteSpace=wrap;rounded=1;strokeColor=default;arcSize=4;spacing=6;strokeWidth=2;fontSize=20;" parent="cQ-WbhC2AdRpNKnGHfEH-58" vertex="1">
          <mxGeometry x="11" y="273.15" width="60" height="30" as="geometry" />
        </mxCell>
        <mxCell id="cQ-WbhC2AdRpNKnGHfEH-135" value="" style="rounded=0;whiteSpace=wrap;html=1;aspect=fixed;strokeWidth=1;perimeterSpacing=0;" parent="cQ-WbhC2AdRpNKnGHfEH-58" vertex="1">
          <mxGeometry x="209" y="329.1500000000001" width="45" height="45" as="geometry" />
        </mxCell>
        <mxCell id="cQ-WbhC2AdRpNKnGHfEH-136" value="" style="rounded=0;whiteSpace=wrap;html=1;aspect=fixed;strokeWidth=1;perimeterSpacing=0;" parent="cQ-WbhC2AdRpNKnGHfEH-58" vertex="1">
          <mxGeometry x="119" y="329.1500000000001" width="45" height="45" as="geometry" />
        </mxCell>
        <mxCell id="cQ-WbhC2AdRpNKnGHfEH-137" value="" style="rounded=0;whiteSpace=wrap;html=1;aspect=fixed;strokeWidth=1;perimeterSpacing=0;" parent="cQ-WbhC2AdRpNKnGHfEH-58" vertex="1">
          <mxGeometry x="164" y="329.1500000000001" width="45" height="45" as="geometry" />
        </mxCell>
        <mxCell id="cQ-WbhC2AdRpNKnGHfEH-138" value="" style="rounded=0;whiteSpace=wrap;html=1;aspect=fixed;strokeWidth=1;perimeterSpacing=0;" parent="cQ-WbhC2AdRpNKnGHfEH-58" vertex="1">
          <mxGeometry x="52" y="329.1500000000001" width="45" height="45" as="geometry" />
        </mxCell>
        <mxCell id="cQ-WbhC2AdRpNKnGHfEH-139" value="" style="rounded=0;whiteSpace=wrap;html=1;aspect=fixed;strokeWidth=1;perimeterSpacing=0;" parent="cQ-WbhC2AdRpNKnGHfEH-58" vertex="1">
          <mxGeometry x="7" y="329.1500000000001" width="45" height="45" as="geometry" />
        </mxCell>
        <mxCell id="cQ-WbhC2AdRpNKnGHfEH-140" value="описание" style="rounded=0;whiteSpace=wrap;html=1;strokeWidth=2;" parent="cQ-WbhC2AdRpNKnGHfEH-58" vertex="1">
          <mxGeometry x="81" y="49.15" width="175" height="29.85" as="geometry" />
        </mxCell>
        <mxCell id="cQ-WbhC2AdRpNKnGHfEH-141" value="описание" style="rounded=0;whiteSpace=wrap;html=1;strokeWidth=2;" parent="cQ-WbhC2AdRpNKnGHfEH-58" vertex="1">
          <mxGeometry x="81" y="87.3" width="175" height="29.85" as="geometry" />
        </mxCell>
        <mxCell id="cQ-WbhC2AdRpNKnGHfEH-142" value="описание" style="rounded=0;whiteSpace=wrap;html=1;strokeWidth=2;" parent="cQ-WbhC2AdRpNKnGHfEH-58" vertex="1">
          <mxGeometry x="81" y="124.30000000000001" width="175" height="29.85" as="geometry" />
        </mxCell>
        <mxCell id="cQ-WbhC2AdRpNKnGHfEH-143" value="описание" style="rounded=0;whiteSpace=wrap;html=1;strokeWidth=2;" parent="cQ-WbhC2AdRpNKnGHfEH-58" vertex="1">
          <mxGeometry x="81" y="162.3" width="175" height="29.85" as="geometry" />
        </mxCell>
        <mxCell id="cQ-WbhC2AdRpNKnGHfEH-144" value="описание" style="rounded=0;whiteSpace=wrap;html=1;strokeWidth=2;" parent="cQ-WbhC2AdRpNKnGHfEH-58" vertex="1">
          <mxGeometry x="81" y="199.3" width="175" height="29.85" as="geometry" />
        </mxCell>
        <mxCell id="cQ-WbhC2AdRpNKnGHfEH-145" value="описание" style="rounded=0;whiteSpace=wrap;html=1;strokeWidth=2;" parent="cQ-WbhC2AdRpNKnGHfEH-58" vertex="1">
          <mxGeometry x="81" y="236.3" width="175" height="29.85" as="geometry" />
        </mxCell>
        <mxCell id="cQ-WbhC2AdRpNKnGHfEH-146" value="описание" style="rounded=0;whiteSpace=wrap;html=1;strokeWidth=2;" parent="cQ-WbhC2AdRpNKnGHfEH-58" vertex="1">
          <mxGeometry x="81" y="273.15" width="175" height="29.85" as="geometry" />
        </mxCell>
        <mxCell id="cQ-WbhC2AdRpNKnGHfEH-63" value="НАЗВАНИЕ УЛИЦЫ&amp;nbsp;№4" style="swimlane;whiteSpace=wrap;html=1;strokeWidth=3;startSize=41;fontSize=14;" parent="1" vertex="1">
          <mxGeometry x="6" y="395.0899999999999" width="263" height="380.1500000000001" as="geometry" />
        </mxCell>
        <mxCell id="cQ-WbhC2AdRpNKnGHfEH-166" value="&lt;font style=&quot;font-size: 20px;&quot;&gt;L0&lt;/font&gt;" style="text;html=1;align=center;verticalAlign=middle;whiteSpace=wrap;rounded=1;strokeColor=default;arcSize=4;spacing=6;strokeWidth=2;fontSize=20;" parent="cQ-WbhC2AdRpNKnGHfEH-63" vertex="1">
          <mxGeometry x="11" y="48.14999999999998" width="60" height="30" as="geometry" />
        </mxCell>
        <mxCell id="cQ-WbhC2AdRpNKnGHfEH-167" value="&lt;font style=&quot;font-size: 20px;&quot;&gt;L1&lt;/font&gt;" style="text;html=1;align=center;verticalAlign=middle;whiteSpace=wrap;rounded=1;strokeColor=default;arcSize=4;spacing=6;strokeWidth=2;fontSize=20;" parent="cQ-WbhC2AdRpNKnGHfEH-63" vertex="1">
          <mxGeometry x="11" y="86.14999999999998" width="60" height="30" as="geometry" />
        </mxCell>
        <mxCell id="cQ-WbhC2AdRpNKnGHfEH-168" value="&lt;font style=&quot;font-size: 20px;&quot;&gt;L2&lt;/font&gt;" style="text;html=1;align=center;verticalAlign=middle;whiteSpace=wrap;rounded=1;strokeColor=default;arcSize=4;spacing=6;strokeWidth=2;fontSize=20;" parent="cQ-WbhC2AdRpNKnGHfEH-63" vertex="1">
          <mxGeometry x="11" y="123.14999999999998" width="60" height="30" as="geometry" />
        </mxCell>
        <mxCell id="cQ-WbhC2AdRpNKnGHfEH-169" value="&lt;font style=&quot;font-size: 20px;&quot;&gt;L3&lt;/font&gt;" style="text;html=1;align=center;verticalAlign=middle;whiteSpace=wrap;rounded=1;strokeColor=default;arcSize=4;spacing=6;strokeWidth=2;fontSize=20;" parent="cQ-WbhC2AdRpNKnGHfEH-63" vertex="1">
          <mxGeometry x="11" y="161.14999999999998" width="60" height="30" as="geometry" />
        </mxCell>
        <mxCell id="cQ-WbhC2AdRpNKnGHfEH-170" value="&lt;font style=&quot;font-size: 20px;&quot;&gt;L4&lt;/font&gt;" style="text;html=1;align=center;verticalAlign=middle;whiteSpace=wrap;rounded=1;strokeColor=default;arcSize=4;spacing=6;strokeWidth=2;fontSize=20;" parent="cQ-WbhC2AdRpNKnGHfEH-63" vertex="1">
          <mxGeometry x="11" y="198.14999999999998" width="60" height="30" as="geometry" />
        </mxCell>
        <mxCell id="cQ-WbhC2AdRpNKnGHfEH-171" value="&lt;font style=&quot;font-size: 20px;&quot;&gt;L5&lt;/font&gt;" style="text;html=1;align=center;verticalAlign=middle;whiteSpace=wrap;rounded=1;strokeColor=default;arcSize=4;spacing=6;strokeWidth=2;fontSize=20;" parent="cQ-WbhC2AdRpNKnGHfEH-63" vertex="1">
          <mxGeometry x="11" y="235.14999999999998" width="60" height="30" as="geometry" />
        </mxCell>
        <mxCell id="cQ-WbhC2AdRpNKnGHfEH-172" value="&lt;span style=&quot;font-size: 20px;&quot;&gt;MAX&lt;/span&gt;" style="text;html=1;align=center;verticalAlign=middle;whiteSpace=wrap;rounded=1;strokeColor=default;arcSize=4;spacing=6;strokeWidth=2;fontSize=20;" parent="cQ-WbhC2AdRpNKnGHfEH-63" vertex="1">
          <mxGeometry x="11" y="272.15" width="60" height="30" as="geometry" />
        </mxCell>
        <mxCell id="cQ-WbhC2AdRpNKnGHfEH-173" value="" style="rounded=0;whiteSpace=wrap;html=1;aspect=fixed;strokeWidth=1;perimeterSpacing=0;" parent="cQ-WbhC2AdRpNKnGHfEH-63" vertex="1">
          <mxGeometry x="209" y="328.1500000000001" width="45" height="45" as="geometry" />
        </mxCell>
        <mxCell id="cQ-WbhC2AdRpNKnGHfEH-174" value="" style="rounded=0;whiteSpace=wrap;html=1;aspect=fixed;strokeWidth=1;perimeterSpacing=0;" parent="cQ-WbhC2AdRpNKnGHfEH-63" vertex="1">
          <mxGeometry x="119" y="328.1500000000001" width="45" height="45" as="geometry" />
        </mxCell>
        <mxCell id="cQ-WbhC2AdRpNKnGHfEH-175" value="" style="rounded=0;whiteSpace=wrap;html=1;aspect=fixed;strokeWidth=1;perimeterSpacing=0;" parent="cQ-WbhC2AdRpNKnGHfEH-63" vertex="1">
          <mxGeometry x="164" y="328.1500000000001" width="45" height="45" as="geometry" />
        </mxCell>
        <mxCell id="cQ-WbhC2AdRpNKnGHfEH-176" value="" style="rounded=0;whiteSpace=wrap;html=1;aspect=fixed;strokeWidth=1;perimeterSpacing=0;" parent="cQ-WbhC2AdRpNKnGHfEH-63" vertex="1">
          <mxGeometry x="52" y="328.1500000000001" width="45" height="45" as="geometry" />
        </mxCell>
        <mxCell id="cQ-WbhC2AdRpNKnGHfEH-177" value="" style="rounded=0;whiteSpace=wrap;html=1;aspect=fixed;strokeWidth=1;perimeterSpacing=0;" parent="cQ-WbhC2AdRpNKnGHfEH-63" vertex="1">
          <mxGeometry x="7" y="328.1500000000001" width="45" height="45" as="geometry" />
        </mxCell>
        <mxCell id="cQ-WbhC2AdRpNKnGHfEH-178" value="описание" style="rounded=0;whiteSpace=wrap;html=1;strokeWidth=2;" parent="cQ-WbhC2AdRpNKnGHfEH-63" vertex="1">
          <mxGeometry x="81" y="48.14999999999998" width="175" height="29.85" as="geometry" />
        </mxCell>
        <mxCell id="cQ-WbhC2AdRpNKnGHfEH-179" value="описание" style="rounded=0;whiteSpace=wrap;html=1;strokeWidth=2;" parent="cQ-WbhC2AdRpNKnGHfEH-63" vertex="1">
          <mxGeometry x="81" y="86.30000000000001" width="175" height="29.85" as="geometry" />
        </mxCell>
        <mxCell id="cQ-WbhC2AdRpNKnGHfEH-180" value="описание" style="rounded=0;whiteSpace=wrap;html=1;strokeWidth=2;" parent="cQ-WbhC2AdRpNKnGHfEH-63" vertex="1">
          <mxGeometry x="81" y="123.29999999999995" width="175" height="29.85" as="geometry" />
        </mxCell>
        <mxCell id="cQ-WbhC2AdRpNKnGHfEH-181" value="описание" style="rounded=0;whiteSpace=wrap;html=1;strokeWidth=2;" parent="cQ-WbhC2AdRpNKnGHfEH-63" vertex="1">
          <mxGeometry x="81" y="161.29999999999995" width="175" height="29.85" as="geometry" />
        </mxCell>
        <mxCell id="cQ-WbhC2AdRpNKnGHfEH-182" value="описание" style="rounded=0;whiteSpace=wrap;html=1;strokeWidth=2;" parent="cQ-WbhC2AdRpNKnGHfEH-63" vertex="1">
          <mxGeometry x="81" y="198.29999999999995" width="175" height="29.85" as="geometry" />
        </mxCell>
        <mxCell id="cQ-WbhC2AdRpNKnGHfEH-183" value="описание" style="rounded=0;whiteSpace=wrap;html=1;strokeWidth=2;" parent="cQ-WbhC2AdRpNKnGHfEH-63" vertex="1">
          <mxGeometry x="81" y="235.29999999999995" width="175" height="29.85" as="geometry" />
        </mxCell>
        <mxCell id="cQ-WbhC2AdRpNKnGHfEH-184" value="описание" style="rounded=0;whiteSpace=wrap;html=1;strokeWidth=2;" parent="cQ-WbhC2AdRpNKnGHfEH-63" vertex="1">
          <mxGeometry x="81" y="272.15" width="175" height="29.85" as="geometry" />
        </mxCell>
        <mxCell id="cQ-WbhC2AdRpNKnGHfEH-68" value="НАЗВАНИЕ УЛИЦЫ&amp;nbsp;№5" style="swimlane;whiteSpace=wrap;html=1;strokeWidth=3;startSize=41;fontSize=14;" parent="1" vertex="1">
          <mxGeometry x="282" y="395.0899999999999" width="263" height="380.15" as="geometry" />
        </mxCell>
        <mxCell id="cQ-WbhC2AdRpNKnGHfEH-185" value="&lt;font style=&quot;font-size: 20px;&quot;&gt;L0&lt;/font&gt;" style="text;html=1;align=center;verticalAlign=middle;whiteSpace=wrap;rounded=1;strokeColor=default;arcSize=4;spacing=6;strokeWidth=2;fontSize=20;" parent="cQ-WbhC2AdRpNKnGHfEH-68" vertex="1">
          <mxGeometry x="11" y="49.64999999999998" width="60" height="30" as="geometry" />
        </mxCell>
        <mxCell id="cQ-WbhC2AdRpNKnGHfEH-186" value="&lt;font style=&quot;font-size: 20px;&quot;&gt;L1&lt;/font&gt;" style="text;html=1;align=center;verticalAlign=middle;whiteSpace=wrap;rounded=1;strokeColor=default;arcSize=4;spacing=6;strokeWidth=2;fontSize=20;" parent="cQ-WbhC2AdRpNKnGHfEH-68" vertex="1">
          <mxGeometry x="11" y="87.64999999999998" width="60" height="30" as="geometry" />
        </mxCell>
        <mxCell id="cQ-WbhC2AdRpNKnGHfEH-187" value="&lt;font style=&quot;font-size: 20px;&quot;&gt;L2&lt;/font&gt;" style="text;html=1;align=center;verticalAlign=middle;whiteSpace=wrap;rounded=1;strokeColor=default;arcSize=4;spacing=6;strokeWidth=2;fontSize=20;" parent="cQ-WbhC2AdRpNKnGHfEH-68" vertex="1">
          <mxGeometry x="11" y="124.64999999999998" width="60" height="30" as="geometry" />
        </mxCell>
        <mxCell id="cQ-WbhC2AdRpNKnGHfEH-188" value="&lt;font style=&quot;font-size: 20px;&quot;&gt;L3&lt;/font&gt;" style="text;html=1;align=center;verticalAlign=middle;whiteSpace=wrap;rounded=1;strokeColor=default;arcSize=4;spacing=6;strokeWidth=2;fontSize=20;" parent="cQ-WbhC2AdRpNKnGHfEH-68" vertex="1">
          <mxGeometry x="11" y="162.64999999999998" width="60" height="30" as="geometry" />
        </mxCell>
        <mxCell id="cQ-WbhC2AdRpNKnGHfEH-189" value="&lt;font style=&quot;font-size: 20px;&quot;&gt;L4&lt;/font&gt;" style="text;html=1;align=center;verticalAlign=middle;whiteSpace=wrap;rounded=1;strokeColor=default;arcSize=4;spacing=6;strokeWidth=2;fontSize=20;" parent="cQ-WbhC2AdRpNKnGHfEH-68" vertex="1">
          <mxGeometry x="11" y="199.64999999999998" width="60" height="30" as="geometry" />
        </mxCell>
        <mxCell id="cQ-WbhC2AdRpNKnGHfEH-190" value="&lt;font style=&quot;font-size: 20px;&quot;&gt;L5&lt;/font&gt;" style="text;html=1;align=center;verticalAlign=middle;whiteSpace=wrap;rounded=1;strokeColor=default;arcSize=4;spacing=6;strokeWidth=2;fontSize=20;" parent="cQ-WbhC2AdRpNKnGHfEH-68" vertex="1">
          <mxGeometry x="11" y="236.64999999999998" width="60" height="30" as="geometry" />
        </mxCell>
        <mxCell id="cQ-WbhC2AdRpNKnGHfEH-191" value="&lt;span style=&quot;font-size: 20px;&quot;&gt;MAX&lt;/span&gt;" style="text;html=1;align=center;verticalAlign=middle;whiteSpace=wrap;rounded=1;strokeColor=default;arcSize=4;spacing=6;strokeWidth=2;fontSize=20;" parent="cQ-WbhC2AdRpNKnGHfEH-68" vertex="1">
          <mxGeometry x="11" y="273.65" width="60" height="30" as="geometry" />
        </mxCell>
        <mxCell id="cQ-WbhC2AdRpNKnGHfEH-192" value="" style="rounded=0;whiteSpace=wrap;html=1;aspect=fixed;strokeWidth=1;perimeterSpacing=0;" parent="cQ-WbhC2AdRpNKnGHfEH-68" vertex="1">
          <mxGeometry x="209" y="329.6500000000001" width="45" height="45" as="geometry" />
        </mxCell>
        <mxCell id="cQ-WbhC2AdRpNKnGHfEH-193" value="" style="rounded=0;whiteSpace=wrap;html=1;aspect=fixed;strokeWidth=1;perimeterSpacing=0;" parent="cQ-WbhC2AdRpNKnGHfEH-68" vertex="1">
          <mxGeometry x="119" y="329.6500000000001" width="45" height="45" as="geometry" />
        </mxCell>
        <mxCell id="cQ-WbhC2AdRpNKnGHfEH-194" value="" style="rounded=0;whiteSpace=wrap;html=1;aspect=fixed;strokeWidth=1;perimeterSpacing=0;" parent="cQ-WbhC2AdRpNKnGHfEH-68" vertex="1">
          <mxGeometry x="164" y="329.6500000000001" width="45" height="45" as="geometry" />
        </mxCell>
        <mxCell id="cQ-WbhC2AdRpNKnGHfEH-195" value="" style="rounded=0;whiteSpace=wrap;html=1;aspect=fixed;strokeWidth=1;perimeterSpacing=0;" parent="cQ-WbhC2AdRpNKnGHfEH-68" vertex="1">
          <mxGeometry x="52" y="329.6500000000001" width="45" height="45" as="geometry" />
        </mxCell>
        <mxCell id="cQ-WbhC2AdRpNKnGHfEH-196" value="" style="rounded=0;whiteSpace=wrap;html=1;aspect=fixed;strokeWidth=1;perimeterSpacing=0;" parent="cQ-WbhC2AdRpNKnGHfEH-68" vertex="1">
          <mxGeometry x="7" y="329.6500000000001" width="45" height="45" as="geometry" />
        </mxCell>
        <mxCell id="cQ-WbhC2AdRpNKnGHfEH-197" value="описание" style="rounded=0;whiteSpace=wrap;html=1;strokeWidth=2;" parent="cQ-WbhC2AdRpNKnGHfEH-68" vertex="1">
          <mxGeometry x="81" y="49.64999999999998" width="175" height="29.85" as="geometry" />
        </mxCell>
        <mxCell id="cQ-WbhC2AdRpNKnGHfEH-198" value="описание" style="rounded=0;whiteSpace=wrap;html=1;strokeWidth=2;" parent="cQ-WbhC2AdRpNKnGHfEH-68" vertex="1">
          <mxGeometry x="81" y="87.80000000000001" width="175" height="29.85" as="geometry" />
        </mxCell>
        <mxCell id="cQ-WbhC2AdRpNKnGHfEH-199" value="описание" style="rounded=0;whiteSpace=wrap;html=1;strokeWidth=2;" parent="cQ-WbhC2AdRpNKnGHfEH-68" vertex="1">
          <mxGeometry x="81" y="124.79999999999995" width="175" height="29.85" as="geometry" />
        </mxCell>
        <mxCell id="cQ-WbhC2AdRpNKnGHfEH-200" value="описание" style="rounded=0;whiteSpace=wrap;html=1;strokeWidth=2;" parent="cQ-WbhC2AdRpNKnGHfEH-68" vertex="1">
          <mxGeometry x="81" y="162.79999999999995" width="175" height="29.85" as="geometry" />
        </mxCell>
        <mxCell id="cQ-WbhC2AdRpNKnGHfEH-201" value="описание" style="rounded=0;whiteSpace=wrap;html=1;strokeWidth=2;" parent="cQ-WbhC2AdRpNKnGHfEH-68" vertex="1">
          <mxGeometry x="81" y="199.79999999999995" width="175" height="29.85" as="geometry" />
        </mxCell>
        <mxCell id="cQ-WbhC2AdRpNKnGHfEH-202" value="описание" style="rounded=0;whiteSpace=wrap;html=1;strokeWidth=2;" parent="cQ-WbhC2AdRpNKnGHfEH-68" vertex="1">
          <mxGeometry x="81" y="236.79999999999995" width="175" height="29.85" as="geometry" />
        </mxCell>
        <mxCell id="cQ-WbhC2AdRpNKnGHfEH-203" value="описание" style="rounded=0;whiteSpace=wrap;html=1;strokeWidth=2;" parent="cQ-WbhC2AdRpNKnGHfEH-68" vertex="1">
          <mxGeometry x="81" y="273.65" width="175" height="29.85" as="geometry" />
        </mxCell>
        <mxCell id="cQ-WbhC2AdRpNKnGHfEH-73" value="НАЗВАНИЕ УЛИЦЫ&amp;nbsp;№6" style="swimlane;whiteSpace=wrap;html=1;strokeWidth=3;startSize=41;fontSize=14;" parent="1" vertex="1">
          <mxGeometry x="556" y="395.0899999999999" width="263" height="380.15" as="geometry" />
        </mxCell>
        <mxCell id="cQ-WbhC2AdRpNKnGHfEH-204" value="&lt;font style=&quot;font-size: 20px;&quot;&gt;L0&lt;/font&gt;" style="text;html=1;align=center;verticalAlign=middle;whiteSpace=wrap;rounded=1;strokeColor=default;arcSize=4;spacing=6;strokeWidth=2;fontSize=20;" parent="cQ-WbhC2AdRpNKnGHfEH-73" vertex="1">
          <mxGeometry x="11" y="49.64999999999998" width="60" height="30" as="geometry" />
        </mxCell>
        <mxCell id="cQ-WbhC2AdRpNKnGHfEH-205" value="&lt;font style=&quot;font-size: 20px;&quot;&gt;L1&lt;/font&gt;" style="text;html=1;align=center;verticalAlign=middle;whiteSpace=wrap;rounded=1;strokeColor=default;arcSize=4;spacing=6;strokeWidth=2;fontSize=20;" parent="cQ-WbhC2AdRpNKnGHfEH-73" vertex="1">
          <mxGeometry x="11" y="87.64999999999998" width="60" height="30" as="geometry" />
        </mxCell>
        <mxCell id="cQ-WbhC2AdRpNKnGHfEH-206" value="&lt;font style=&quot;font-size: 20px;&quot;&gt;L2&lt;/font&gt;" style="text;html=1;align=center;verticalAlign=middle;whiteSpace=wrap;rounded=1;strokeColor=default;arcSize=4;spacing=6;strokeWidth=2;fontSize=20;" parent="cQ-WbhC2AdRpNKnGHfEH-73" vertex="1">
          <mxGeometry x="11" y="124.64999999999998" width="60" height="30" as="geometry" />
        </mxCell>
        <mxCell id="cQ-WbhC2AdRpNKnGHfEH-207" value="&lt;font style=&quot;font-size: 20px;&quot;&gt;L3&lt;/font&gt;" style="text;html=1;align=center;verticalAlign=middle;whiteSpace=wrap;rounded=1;strokeColor=default;arcSize=4;spacing=6;strokeWidth=2;fontSize=20;" parent="cQ-WbhC2AdRpNKnGHfEH-73" vertex="1">
          <mxGeometry x="11" y="162.64999999999998" width="60" height="30" as="geometry" />
        </mxCell>
        <mxCell id="cQ-WbhC2AdRpNKnGHfEH-208" value="&lt;font style=&quot;font-size: 20px;&quot;&gt;L4&lt;/font&gt;" style="text;html=1;align=center;verticalAlign=middle;whiteSpace=wrap;rounded=1;strokeColor=default;arcSize=4;spacing=6;strokeWidth=2;fontSize=20;" parent="cQ-WbhC2AdRpNKnGHfEH-73" vertex="1">
          <mxGeometry x="11" y="199.64999999999998" width="60" height="30" as="geometry" />
        </mxCell>
        <mxCell id="cQ-WbhC2AdRpNKnGHfEH-209" value="&lt;font style=&quot;font-size: 20px;&quot;&gt;L5&lt;/font&gt;" style="text;html=1;align=center;verticalAlign=middle;whiteSpace=wrap;rounded=1;strokeColor=default;arcSize=4;spacing=6;strokeWidth=2;fontSize=20;" parent="cQ-WbhC2AdRpNKnGHfEH-73" vertex="1">
          <mxGeometry x="11" y="236.64999999999998" width="60" height="30" as="geometry" />
        </mxCell>
        <mxCell id="cQ-WbhC2AdRpNKnGHfEH-210" value="&lt;span style=&quot;font-size: 20px;&quot;&gt;MAX&lt;/span&gt;" style="text;html=1;align=center;verticalAlign=middle;whiteSpace=wrap;rounded=1;strokeColor=default;arcSize=4;spacing=6;strokeWidth=2;fontSize=20;" parent="cQ-WbhC2AdRpNKnGHfEH-73" vertex="1">
          <mxGeometry x="11" y="273.65" width="60" height="30" as="geometry" />
        </mxCell>
        <mxCell id="cQ-WbhC2AdRpNKnGHfEH-211" value="" style="rounded=0;whiteSpace=wrap;html=1;aspect=fixed;strokeWidth=1;perimeterSpacing=0;" parent="cQ-WbhC2AdRpNKnGHfEH-73" vertex="1">
          <mxGeometry x="209" y="329.6500000000001" width="45" height="45" as="geometry" />
        </mxCell>
        <mxCell id="cQ-WbhC2AdRpNKnGHfEH-212" value="" style="rounded=0;whiteSpace=wrap;html=1;aspect=fixed;strokeWidth=1;perimeterSpacing=0;" parent="cQ-WbhC2AdRpNKnGHfEH-73" vertex="1">
          <mxGeometry x="119" y="329.6500000000001" width="45" height="45" as="geometry" />
        </mxCell>
        <mxCell id="cQ-WbhC2AdRpNKnGHfEH-213" value="" style="rounded=0;whiteSpace=wrap;html=1;aspect=fixed;strokeWidth=1;perimeterSpacing=0;" parent="cQ-WbhC2AdRpNKnGHfEH-73" vertex="1">
          <mxGeometry x="164" y="329.6500000000001" width="45" height="45" as="geometry" />
        </mxCell>
        <mxCell id="cQ-WbhC2AdRpNKnGHfEH-214" value="" style="rounded=0;whiteSpace=wrap;html=1;aspect=fixed;strokeWidth=1;perimeterSpacing=0;" parent="cQ-WbhC2AdRpNKnGHfEH-73" vertex="1">
          <mxGeometry x="52" y="329.6500000000001" width="45" height="45" as="geometry" />
        </mxCell>
        <mxCell id="cQ-WbhC2AdRpNKnGHfEH-215" value="" style="rounded=0;whiteSpace=wrap;html=1;aspect=fixed;strokeWidth=1;perimeterSpacing=0;" parent="cQ-WbhC2AdRpNKnGHfEH-73" vertex="1">
          <mxGeometry x="7" y="329.6500000000001" width="45" height="45" as="geometry" />
        </mxCell>
        <mxCell id="cQ-WbhC2AdRpNKnGHfEH-216" value="описание" style="rounded=0;whiteSpace=wrap;html=1;strokeWidth=2;" parent="cQ-WbhC2AdRpNKnGHfEH-73" vertex="1">
          <mxGeometry x="81" y="49.64999999999998" width="175" height="29.85" as="geometry" />
        </mxCell>
        <mxCell id="cQ-WbhC2AdRpNKnGHfEH-217" value="описание" style="rounded=0;whiteSpace=wrap;html=1;strokeWidth=2;" parent="cQ-WbhC2AdRpNKnGHfEH-73" vertex="1">
          <mxGeometry x="81" y="87.80000000000001" width="175" height="29.85" as="geometry" />
        </mxCell>
        <mxCell id="cQ-WbhC2AdRpNKnGHfEH-218" value="описание" style="rounded=0;whiteSpace=wrap;html=1;strokeWidth=2;" parent="cQ-WbhC2AdRpNKnGHfEH-73" vertex="1">
          <mxGeometry x="81" y="124.79999999999995" width="175" height="29.85" as="geometry" />
        </mxCell>
        <mxCell id="cQ-WbhC2AdRpNKnGHfEH-219" value="описание" style="rounded=0;whiteSpace=wrap;html=1;strokeWidth=2;" parent="cQ-WbhC2AdRpNKnGHfEH-73" vertex="1">
          <mxGeometry x="81" y="162.79999999999995" width="175" height="29.85" as="geometry" />
        </mxCell>
        <mxCell id="cQ-WbhC2AdRpNKnGHfEH-220" value="описание" style="rounded=0;whiteSpace=wrap;html=1;strokeWidth=2;" parent="cQ-WbhC2AdRpNKnGHfEH-73" vertex="1">
          <mxGeometry x="81" y="199.79999999999995" width="175" height="29.85" as="geometry" />
        </mxCell>
        <mxCell id="cQ-WbhC2AdRpNKnGHfEH-221" value="описание" style="rounded=0;whiteSpace=wrap;html=1;strokeWidth=2;" parent="cQ-WbhC2AdRpNKnGHfEH-73" vertex="1">
          <mxGeometry x="81" y="236.79999999999995" width="175" height="29.85" as="geometry" />
        </mxCell>
        <mxCell id="cQ-WbhC2AdRpNKnGHfEH-222" value="описание" style="rounded=0;whiteSpace=wrap;html=1;strokeWidth=2;" parent="cQ-WbhC2AdRpNKnGHfEH-73" vertex="1">
          <mxGeometry x="81" y="273.65" width="175" height="29.85" as="geometry" />
        </mxCell>
        <mxCell id="cQ-WbhC2AdRpNKnGHfEH-78" value="НАЗВАНИЕ УЛИЦЫ&amp;nbsp;№7" style="swimlane;whiteSpace=wrap;html=1;strokeWidth=3;startSize=41;fontSize=14;" parent="1" vertex="1">
          <mxGeometry x="6" y="785" width="263" height="380.1500000000001" as="geometry" />
        </mxCell>
        <mxCell id="cQ-WbhC2AdRpNKnGHfEH-223" value="&lt;font style=&quot;font-size: 20px;&quot;&gt;L0&lt;/font&gt;" style="text;html=1;align=center;verticalAlign=middle;whiteSpace=wrap;rounded=1;strokeColor=default;arcSize=4;spacing=6;strokeWidth=2;fontSize=20;" parent="cQ-WbhC2AdRpNKnGHfEH-78" vertex="1">
          <mxGeometry x="11" y="50.149999999999864" width="60" height="30" as="geometry" />
        </mxCell>
        <mxCell id="cQ-WbhC2AdRpNKnGHfEH-224" value="&lt;font style=&quot;font-size: 20px;&quot;&gt;L1&lt;/font&gt;" style="text;html=1;align=center;verticalAlign=middle;whiteSpace=wrap;rounded=1;strokeColor=default;arcSize=4;spacing=6;strokeWidth=2;fontSize=20;" parent="cQ-WbhC2AdRpNKnGHfEH-78" vertex="1">
          <mxGeometry x="11" y="88.14999999999986" width="60" height="30" as="geometry" />
        </mxCell>
        <mxCell id="cQ-WbhC2AdRpNKnGHfEH-225" value="&lt;font style=&quot;font-size: 20px;&quot;&gt;L2&lt;/font&gt;" style="text;html=1;align=center;verticalAlign=middle;whiteSpace=wrap;rounded=1;strokeColor=default;arcSize=4;spacing=6;strokeWidth=2;fontSize=20;" parent="cQ-WbhC2AdRpNKnGHfEH-78" vertex="1">
          <mxGeometry x="11" y="125.14999999999986" width="60" height="30" as="geometry" />
        </mxCell>
        <mxCell id="cQ-WbhC2AdRpNKnGHfEH-226" value="&lt;font style=&quot;font-size: 20px;&quot;&gt;L3&lt;/font&gt;" style="text;html=1;align=center;verticalAlign=middle;whiteSpace=wrap;rounded=1;strokeColor=default;arcSize=4;spacing=6;strokeWidth=2;fontSize=20;" parent="cQ-WbhC2AdRpNKnGHfEH-78" vertex="1">
          <mxGeometry x="11" y="163.14999999999986" width="60" height="30" as="geometry" />
        </mxCell>
        <mxCell id="cQ-WbhC2AdRpNKnGHfEH-227" value="&lt;font style=&quot;font-size: 20px;&quot;&gt;L4&lt;/font&gt;" style="text;html=1;align=center;verticalAlign=middle;whiteSpace=wrap;rounded=1;strokeColor=default;arcSize=4;spacing=6;strokeWidth=2;fontSize=20;" parent="cQ-WbhC2AdRpNKnGHfEH-78" vertex="1">
          <mxGeometry x="11" y="200.14999999999986" width="60" height="30" as="geometry" />
        </mxCell>
        <mxCell id="cQ-WbhC2AdRpNKnGHfEH-228" value="&lt;font style=&quot;font-size: 20px;&quot;&gt;L5&lt;/font&gt;" style="text;html=1;align=center;verticalAlign=middle;whiteSpace=wrap;rounded=1;strokeColor=default;arcSize=4;spacing=6;strokeWidth=2;fontSize=20;" parent="cQ-WbhC2AdRpNKnGHfEH-78" vertex="1">
          <mxGeometry x="11" y="237.14999999999986" width="60" height="30" as="geometry" />
        </mxCell>
        <mxCell id="cQ-WbhC2AdRpNKnGHfEH-229" value="&lt;span style=&quot;font-size: 20px;&quot;&gt;MAX&lt;/span&gt;" style="text;html=1;align=center;verticalAlign=middle;whiteSpace=wrap;rounded=1;strokeColor=default;arcSize=4;spacing=6;strokeWidth=2;fontSize=20;" parent="cQ-WbhC2AdRpNKnGHfEH-78" vertex="1">
          <mxGeometry x="11" y="274.14999999999986" width="60" height="30" as="geometry" />
        </mxCell>
        <mxCell id="cQ-WbhC2AdRpNKnGHfEH-230" value="" style="rounded=0;whiteSpace=wrap;html=1;aspect=fixed;strokeWidth=1;perimeterSpacing=0;" parent="cQ-WbhC2AdRpNKnGHfEH-78" vertex="1">
          <mxGeometry x="209" y="330.1500000000001" width="45" height="45" as="geometry" />
        </mxCell>
        <mxCell id="cQ-WbhC2AdRpNKnGHfEH-231" value="" style="rounded=0;whiteSpace=wrap;html=1;aspect=fixed;strokeWidth=1;perimeterSpacing=0;" parent="cQ-WbhC2AdRpNKnGHfEH-78" vertex="1">
          <mxGeometry x="119" y="330.1500000000001" width="45" height="45" as="geometry" />
        </mxCell>
        <mxCell id="cQ-WbhC2AdRpNKnGHfEH-232" value="" style="rounded=0;whiteSpace=wrap;html=1;aspect=fixed;strokeWidth=1;perimeterSpacing=0;" parent="cQ-WbhC2AdRpNKnGHfEH-78" vertex="1">
          <mxGeometry x="164" y="330.1500000000001" width="45" height="45" as="geometry" />
        </mxCell>
        <mxCell id="cQ-WbhC2AdRpNKnGHfEH-233" value="" style="rounded=0;whiteSpace=wrap;html=1;aspect=fixed;strokeWidth=1;perimeterSpacing=0;" parent="cQ-WbhC2AdRpNKnGHfEH-78" vertex="1">
          <mxGeometry x="52" y="330.1500000000001" width="45" height="45" as="geometry" />
        </mxCell>
        <mxCell id="cQ-WbhC2AdRpNKnGHfEH-234" value="" style="rounded=0;whiteSpace=wrap;html=1;aspect=fixed;strokeWidth=1;perimeterSpacing=0;" parent="cQ-WbhC2AdRpNKnGHfEH-78" vertex="1">
          <mxGeometry x="7" y="330.1500000000001" width="45" height="45" as="geometry" />
        </mxCell>
        <mxCell id="cQ-WbhC2AdRpNKnGHfEH-235" value="описание" style="rounded=0;whiteSpace=wrap;html=1;strokeWidth=2;" parent="cQ-WbhC2AdRpNKnGHfEH-78" vertex="1">
          <mxGeometry x="81" y="50.149999999999864" width="175" height="29.85" as="geometry" />
        </mxCell>
        <mxCell id="cQ-WbhC2AdRpNKnGHfEH-236" value="описание" style="rounded=0;whiteSpace=wrap;html=1;strokeWidth=2;" parent="cQ-WbhC2AdRpNKnGHfEH-78" vertex="1">
          <mxGeometry x="81" y="88.29999999999995" width="175" height="29.85" as="geometry" />
        </mxCell>
        <mxCell id="cQ-WbhC2AdRpNKnGHfEH-237" value="описание" style="rounded=0;whiteSpace=wrap;html=1;strokeWidth=2;" parent="cQ-WbhC2AdRpNKnGHfEH-78" vertex="1">
          <mxGeometry x="81" y="125.29999999999995" width="175" height="29.85" as="geometry" />
        </mxCell>
        <mxCell id="cQ-WbhC2AdRpNKnGHfEH-238" value="описание" style="rounded=0;whiteSpace=wrap;html=1;strokeWidth=2;" parent="cQ-WbhC2AdRpNKnGHfEH-78" vertex="1">
          <mxGeometry x="81" y="163.29999999999995" width="175" height="29.85" as="geometry" />
        </mxCell>
        <mxCell id="cQ-WbhC2AdRpNKnGHfEH-239" value="описание" style="rounded=0;whiteSpace=wrap;html=1;strokeWidth=2;" parent="cQ-WbhC2AdRpNKnGHfEH-78" vertex="1">
          <mxGeometry x="81" y="200.29999999999995" width="175" height="29.85" as="geometry" />
        </mxCell>
        <mxCell id="cQ-WbhC2AdRpNKnGHfEH-240" value="описание" style="rounded=0;whiteSpace=wrap;html=1;strokeWidth=2;" parent="cQ-WbhC2AdRpNKnGHfEH-78" vertex="1">
          <mxGeometry x="81" y="237.29999999999995" width="175" height="29.85" as="geometry" />
        </mxCell>
        <mxCell id="cQ-WbhC2AdRpNKnGHfEH-241" value="описание" style="rounded=0;whiteSpace=wrap;html=1;strokeWidth=2;" parent="cQ-WbhC2AdRpNKnGHfEH-78" vertex="1">
          <mxGeometry x="81" y="274.14999999999986" width="175" height="29.85" as="geometry" />
        </mxCell>
        <mxCell id="cQ-WbhC2AdRpNKnGHfEH-83" value="НАЗВАНИЕ УЛИЦЫ&amp;nbsp;№8" style="swimlane;whiteSpace=wrap;html=1;strokeWidth=3;startSize=41;fontSize=14;" parent="1" vertex="1">
          <mxGeometry x="282" y="785" width="263" height="380.15" as="geometry" />
        </mxCell>
        <mxCell id="cQ-WbhC2AdRpNKnGHfEH-261" value="&lt;font style=&quot;font-size: 20px;&quot;&gt;L0&lt;/font&gt;" style="text;html=1;align=center;verticalAlign=middle;whiteSpace=wrap;rounded=1;strokeColor=default;arcSize=4;spacing=6;strokeWidth=2;fontSize=20;" parent="cQ-WbhC2AdRpNKnGHfEH-83" vertex="1">
          <mxGeometry x="11" y="50.149999999999864" width="60" height="30" as="geometry" />
        </mxCell>
        <mxCell id="cQ-WbhC2AdRpNKnGHfEH-262" value="&lt;font style=&quot;font-size: 20px;&quot;&gt;L1&lt;/font&gt;" style="text;html=1;align=center;verticalAlign=middle;whiteSpace=wrap;rounded=1;strokeColor=default;arcSize=4;spacing=6;strokeWidth=2;fontSize=20;" parent="cQ-WbhC2AdRpNKnGHfEH-83" vertex="1">
          <mxGeometry x="11" y="88.14999999999986" width="60" height="30" as="geometry" />
        </mxCell>
        <mxCell id="cQ-WbhC2AdRpNKnGHfEH-263" value="&lt;font style=&quot;font-size: 20px;&quot;&gt;L2&lt;/font&gt;" style="text;html=1;align=center;verticalAlign=middle;whiteSpace=wrap;rounded=1;strokeColor=default;arcSize=4;spacing=6;strokeWidth=2;fontSize=20;" parent="cQ-WbhC2AdRpNKnGHfEH-83" vertex="1">
          <mxGeometry x="11" y="125.14999999999986" width="60" height="30" as="geometry" />
        </mxCell>
        <mxCell id="cQ-WbhC2AdRpNKnGHfEH-264" value="&lt;font style=&quot;font-size: 20px;&quot;&gt;L3&lt;/font&gt;" style="text;html=1;align=center;verticalAlign=middle;whiteSpace=wrap;rounded=1;strokeColor=default;arcSize=4;spacing=6;strokeWidth=2;fontSize=20;" parent="cQ-WbhC2AdRpNKnGHfEH-83" vertex="1">
          <mxGeometry x="11" y="163.14999999999986" width="60" height="30" as="geometry" />
        </mxCell>
        <mxCell id="cQ-WbhC2AdRpNKnGHfEH-265" value="&lt;font style=&quot;font-size: 20px;&quot;&gt;L4&lt;/font&gt;" style="text;html=1;align=center;verticalAlign=middle;whiteSpace=wrap;rounded=1;strokeColor=default;arcSize=4;spacing=6;strokeWidth=2;fontSize=20;" parent="cQ-WbhC2AdRpNKnGHfEH-83" vertex="1">
          <mxGeometry x="11" y="200.14999999999986" width="60" height="30" as="geometry" />
        </mxCell>
        <mxCell id="cQ-WbhC2AdRpNKnGHfEH-266" value="&lt;font style=&quot;font-size: 20px;&quot;&gt;L5&lt;/font&gt;" style="text;html=1;align=center;verticalAlign=middle;whiteSpace=wrap;rounded=1;strokeColor=default;arcSize=4;spacing=6;strokeWidth=2;fontSize=20;" parent="cQ-WbhC2AdRpNKnGHfEH-83" vertex="1">
          <mxGeometry x="11" y="237.14999999999986" width="60" height="30" as="geometry" />
        </mxCell>
        <mxCell id="cQ-WbhC2AdRpNKnGHfEH-267" value="&lt;span style=&quot;font-size: 20px;&quot;&gt;MAX&lt;/span&gt;" style="text;html=1;align=center;verticalAlign=middle;whiteSpace=wrap;rounded=1;strokeColor=default;arcSize=4;spacing=6;strokeWidth=2;fontSize=20;" parent="cQ-WbhC2AdRpNKnGHfEH-83" vertex="1">
          <mxGeometry x="11" y="274.14999999999986" width="60" height="30" as="geometry" />
        </mxCell>
        <mxCell id="cQ-WbhC2AdRpNKnGHfEH-268" value="" style="rounded=0;whiteSpace=wrap;html=1;aspect=fixed;strokeWidth=1;perimeterSpacing=0;" parent="cQ-WbhC2AdRpNKnGHfEH-83" vertex="1">
          <mxGeometry x="209" y="330.1500000000001" width="45" height="45" as="geometry" />
        </mxCell>
        <mxCell id="cQ-WbhC2AdRpNKnGHfEH-269" value="" style="rounded=0;whiteSpace=wrap;html=1;aspect=fixed;strokeWidth=1;perimeterSpacing=0;" parent="cQ-WbhC2AdRpNKnGHfEH-83" vertex="1">
          <mxGeometry x="119" y="330.1500000000001" width="45" height="45" as="geometry" />
        </mxCell>
        <mxCell id="cQ-WbhC2AdRpNKnGHfEH-270" value="" style="rounded=0;whiteSpace=wrap;html=1;aspect=fixed;strokeWidth=1;perimeterSpacing=0;" parent="cQ-WbhC2AdRpNKnGHfEH-83" vertex="1">
          <mxGeometry x="164" y="330.1500000000001" width="45" height="45" as="geometry" />
        </mxCell>
        <mxCell id="cQ-WbhC2AdRpNKnGHfEH-271" value="" style="rounded=0;whiteSpace=wrap;html=1;aspect=fixed;strokeWidth=1;perimeterSpacing=0;" parent="cQ-WbhC2AdRpNKnGHfEH-83" vertex="1">
          <mxGeometry x="52" y="330.1500000000001" width="45" height="45" as="geometry" />
        </mxCell>
        <mxCell id="cQ-WbhC2AdRpNKnGHfEH-272" value="" style="rounded=0;whiteSpace=wrap;html=1;aspect=fixed;strokeWidth=1;perimeterSpacing=0;" parent="cQ-WbhC2AdRpNKnGHfEH-83" vertex="1">
          <mxGeometry x="7" y="330.1500000000001" width="45" height="45" as="geometry" />
        </mxCell>
        <mxCell id="cQ-WbhC2AdRpNKnGHfEH-273" value="описание" style="rounded=0;whiteSpace=wrap;html=1;strokeWidth=2;" parent="cQ-WbhC2AdRpNKnGHfEH-83" vertex="1">
          <mxGeometry x="81" y="50.149999999999864" width="175" height="29.85" as="geometry" />
        </mxCell>
        <mxCell id="cQ-WbhC2AdRpNKnGHfEH-274" value="описание" style="rounded=0;whiteSpace=wrap;html=1;strokeWidth=2;" parent="cQ-WbhC2AdRpNKnGHfEH-83" vertex="1">
          <mxGeometry x="81" y="88.29999999999995" width="175" height="29.85" as="geometry" />
        </mxCell>
        <mxCell id="cQ-WbhC2AdRpNKnGHfEH-275" value="описание" style="rounded=0;whiteSpace=wrap;html=1;strokeWidth=2;" parent="cQ-WbhC2AdRpNKnGHfEH-83" vertex="1">
          <mxGeometry x="81" y="125.29999999999995" width="175" height="29.85" as="geometry" />
        </mxCell>
        <mxCell id="cQ-WbhC2AdRpNKnGHfEH-276" value="описание" style="rounded=0;whiteSpace=wrap;html=1;strokeWidth=2;" parent="cQ-WbhC2AdRpNKnGHfEH-83" vertex="1">
          <mxGeometry x="81" y="163.29999999999995" width="175" height="29.85" as="geometry" />
        </mxCell>
        <mxCell id="cQ-WbhC2AdRpNKnGHfEH-277" value="описание" style="rounded=0;whiteSpace=wrap;html=1;strokeWidth=2;" parent="cQ-WbhC2AdRpNKnGHfEH-83" vertex="1">
          <mxGeometry x="81" y="200.29999999999995" width="175" height="29.85" as="geometry" />
        </mxCell>
        <mxCell id="cQ-WbhC2AdRpNKnGHfEH-278" value="описание" style="rounded=0;whiteSpace=wrap;html=1;strokeWidth=2;" parent="cQ-WbhC2AdRpNKnGHfEH-83" vertex="1">
          <mxGeometry x="81" y="237.29999999999995" width="175" height="29.85" as="geometry" />
        </mxCell>
        <mxCell id="cQ-WbhC2AdRpNKnGHfEH-279" value="описание" style="rounded=0;whiteSpace=wrap;html=1;strokeWidth=2;" parent="cQ-WbhC2AdRpNKnGHfEH-83" vertex="1">
          <mxGeometry x="81" y="274.14999999999986" width="175" height="29.85" as="geometry" />
        </mxCell>
        <mxCell id="cQ-WbhC2AdRpNKnGHfEH-88" value="НАЗВАНИЕ УЛИЦЫ&amp;nbsp;№9" style="swimlane;whiteSpace=wrap;html=1;strokeWidth=3;startSize=41;fontSize=14;" parent="1" vertex="1">
          <mxGeometry x="556" y="785" width="263" height="380.15" as="geometry" />
        </mxCell>
        <mxCell id="cQ-WbhC2AdRpNKnGHfEH-280" value="&lt;font style=&quot;font-size: 20px;&quot;&gt;L0&lt;/font&gt;" style="text;html=1;align=center;verticalAlign=middle;whiteSpace=wrap;rounded=1;strokeColor=default;arcSize=4;spacing=6;strokeWidth=2;fontSize=20;" parent="cQ-WbhC2AdRpNKnGHfEH-88" vertex="1">
          <mxGeometry x="11" y="50.149999999999864" width="60" height="30" as="geometry" />
        </mxCell>
        <mxCell id="cQ-WbhC2AdRpNKnGHfEH-281" value="&lt;font style=&quot;font-size: 20px;&quot;&gt;L1&lt;/font&gt;" style="text;html=1;align=center;verticalAlign=middle;whiteSpace=wrap;rounded=1;strokeColor=default;arcSize=4;spacing=6;strokeWidth=2;fontSize=20;" parent="cQ-WbhC2AdRpNKnGHfEH-88" vertex="1">
          <mxGeometry x="11" y="88.14999999999986" width="60" height="30" as="geometry" />
        </mxCell>
        <mxCell id="cQ-WbhC2AdRpNKnGHfEH-282" value="&lt;font style=&quot;font-size: 20px;&quot;&gt;L2&lt;/font&gt;" style="text;html=1;align=center;verticalAlign=middle;whiteSpace=wrap;rounded=1;strokeColor=default;arcSize=4;spacing=6;strokeWidth=2;fontSize=20;" parent="cQ-WbhC2AdRpNKnGHfEH-88" vertex="1">
          <mxGeometry x="11" y="125.14999999999986" width="60" height="30" as="geometry" />
        </mxCell>
        <mxCell id="cQ-WbhC2AdRpNKnGHfEH-283" value="&lt;font style=&quot;font-size: 20px;&quot;&gt;L3&lt;/font&gt;" style="text;html=1;align=center;verticalAlign=middle;whiteSpace=wrap;rounded=1;strokeColor=default;arcSize=4;spacing=6;strokeWidth=2;fontSize=20;" parent="cQ-WbhC2AdRpNKnGHfEH-88" vertex="1">
          <mxGeometry x="11" y="163.14999999999986" width="60" height="30" as="geometry" />
        </mxCell>
        <mxCell id="cQ-WbhC2AdRpNKnGHfEH-284" value="&lt;font style=&quot;font-size: 20px;&quot;&gt;L4&lt;/font&gt;" style="text;html=1;align=center;verticalAlign=middle;whiteSpace=wrap;rounded=1;strokeColor=default;arcSize=4;spacing=6;strokeWidth=2;fontSize=20;" parent="cQ-WbhC2AdRpNKnGHfEH-88" vertex="1">
          <mxGeometry x="11" y="200.14999999999986" width="60" height="30" as="geometry" />
        </mxCell>
        <mxCell id="cQ-WbhC2AdRpNKnGHfEH-285" value="&lt;font style=&quot;font-size: 20px;&quot;&gt;L5&lt;/font&gt;" style="text;html=1;align=center;verticalAlign=middle;whiteSpace=wrap;rounded=1;strokeColor=default;arcSize=4;spacing=6;strokeWidth=2;fontSize=20;" parent="cQ-WbhC2AdRpNKnGHfEH-88" vertex="1">
          <mxGeometry x="11" y="237.14999999999986" width="60" height="30" as="geometry" />
        </mxCell>
        <mxCell id="cQ-WbhC2AdRpNKnGHfEH-286" value="&lt;span style=&quot;font-size: 20px;&quot;&gt;MAX&lt;/span&gt;" style="text;html=1;align=center;verticalAlign=middle;whiteSpace=wrap;rounded=1;strokeColor=default;arcSize=4;spacing=6;strokeWidth=2;fontSize=20;" parent="cQ-WbhC2AdRpNKnGHfEH-88" vertex="1">
          <mxGeometry x="11" y="274.14999999999986" width="60" height="30" as="geometry" />
        </mxCell>
        <mxCell id="cQ-WbhC2AdRpNKnGHfEH-287" value="" style="rounded=0;whiteSpace=wrap;html=1;aspect=fixed;strokeWidth=1;perimeterSpacing=0;" parent="cQ-WbhC2AdRpNKnGHfEH-88" vertex="1">
          <mxGeometry x="209" y="330.1500000000001" width="45" height="45" as="geometry" />
        </mxCell>
        <mxCell id="cQ-WbhC2AdRpNKnGHfEH-288" value="" style="rounded=0;whiteSpace=wrap;html=1;aspect=fixed;strokeWidth=1;perimeterSpacing=0;" parent="cQ-WbhC2AdRpNKnGHfEH-88" vertex="1">
          <mxGeometry x="119" y="330.1500000000001" width="45" height="45" as="geometry" />
        </mxCell>
        <mxCell id="cQ-WbhC2AdRpNKnGHfEH-289" value="" style="rounded=0;whiteSpace=wrap;html=1;aspect=fixed;strokeWidth=1;perimeterSpacing=0;" parent="cQ-WbhC2AdRpNKnGHfEH-88" vertex="1">
          <mxGeometry x="164" y="330.1500000000001" width="45" height="45" as="geometry" />
        </mxCell>
        <mxCell id="cQ-WbhC2AdRpNKnGHfEH-290" value="" style="rounded=0;whiteSpace=wrap;html=1;aspect=fixed;strokeWidth=1;perimeterSpacing=0;" parent="cQ-WbhC2AdRpNKnGHfEH-88" vertex="1">
          <mxGeometry x="52" y="330.1500000000001" width="45" height="45" as="geometry" />
        </mxCell>
        <mxCell id="cQ-WbhC2AdRpNKnGHfEH-291" value="" style="rounded=0;whiteSpace=wrap;html=1;aspect=fixed;strokeWidth=1;perimeterSpacing=0;" parent="cQ-WbhC2AdRpNKnGHfEH-88" vertex="1">
          <mxGeometry x="7" y="330.1500000000001" width="45" height="45" as="geometry" />
        </mxCell>
        <mxCell id="cQ-WbhC2AdRpNKnGHfEH-292" value="описание" style="rounded=0;whiteSpace=wrap;html=1;strokeWidth=2;" parent="cQ-WbhC2AdRpNKnGHfEH-88" vertex="1">
          <mxGeometry x="81" y="50.149999999999864" width="175" height="29.85" as="geometry" />
        </mxCell>
        <mxCell id="cQ-WbhC2AdRpNKnGHfEH-293" value="описание" style="rounded=0;whiteSpace=wrap;html=1;strokeWidth=2;" parent="cQ-WbhC2AdRpNKnGHfEH-88" vertex="1">
          <mxGeometry x="81" y="88.29999999999995" width="175" height="29.85" as="geometry" />
        </mxCell>
        <mxCell id="cQ-WbhC2AdRpNKnGHfEH-294" value="описание" style="rounded=0;whiteSpace=wrap;html=1;strokeWidth=2;" parent="cQ-WbhC2AdRpNKnGHfEH-88" vertex="1">
          <mxGeometry x="81" y="125.29999999999995" width="175" height="29.85" as="geometry" />
        </mxCell>
        <mxCell id="cQ-WbhC2AdRpNKnGHfEH-295" value="описание" style="rounded=0;whiteSpace=wrap;html=1;strokeWidth=2;" parent="cQ-WbhC2AdRpNKnGHfEH-88" vertex="1">
          <mxGeometry x="81" y="163.29999999999995" width="175" height="29.85" as="geometry" />
        </mxCell>
        <mxCell id="cQ-WbhC2AdRpNKnGHfEH-296" value="описание" style="rounded=0;whiteSpace=wrap;html=1;strokeWidth=2;" parent="cQ-WbhC2AdRpNKnGHfEH-88" vertex="1">
          <mxGeometry x="81" y="200.29999999999995" width="175" height="29.85" as="geometry" />
        </mxCell>
        <mxCell id="cQ-WbhC2AdRpNKnGHfEH-297" value="описание" style="rounded=0;whiteSpace=wrap;html=1;strokeWidth=2;" parent="cQ-WbhC2AdRpNKnGHfEH-88" vertex="1">
          <mxGeometry x="81" y="237.29999999999995" width="175" height="29.85" as="geometry" />
        </mxCell>
        <mxCell id="cQ-WbhC2AdRpNKnGHfEH-298" value="описание" style="rounded=0;whiteSpace=wrap;html=1;strokeWidth=2;" parent="cQ-WbhC2AdRpNKnGHfEH-88" vertex="1">
          <mxGeometry x="81" y="274.14999999999986" width="175" height="29.85" as="geometry" />
        </mxCell>
        <mxCell id="cQ-WbhC2AdRpNKnGHfEH-93" value="" style="rounded=0;whiteSpace=wrap;html=1;fillColor=#fad9d5;strokeColor=#ae4132;" parent="1" vertex="1">
          <mxGeometry width="77" height="81" as="geometry" />
        </mxCell>
        <object label="Back Side" id="AKdSxaKkRiqYq3-DQV_A-1">
          <mxCell parent="0" />
        </object>
        <mxCell id="QQCcgWUPPIoVh2ypP03B-1" value="НАЗВАНИЕ КАРТОЧКИ №3" style="swimlane;whiteSpace=wrap;html=1;strokeWidth=10;startSize=41;fontSize=14;strokeColor=none;" parent="AKdSxaKkRiqYq3-DQV_A-1" vertex="1">
          <mxGeometry x="836" y="8" width="260" height="374" as="geometry" />
        </mxCell>
        <mxCell id="QQCcgWUPPIoVh2ypP03B-2" value="ОБОТНАЯ&lt;div&gt;СТОРОНА&lt;/div&gt;&lt;div&gt;КАРТОЧКИ&lt;/div&gt;" style="text;html=1;align=center;verticalAlign=top;whiteSpace=wrap;rounded=1;strokeColor=#000000;arcSize=4;spacing=6;fontSize=14;" parent="QQCcgWUPPIoVh2ypP03B-1" vertex="1">
          <mxGeometry x="9" y="50" width="237" height="314" as="geometry" />
        </mxCell>
        <mxCell id="QQCcgWUPPIoVh2ypP03B-3" value="&lt;b&gt;&lt;font style=&quot;font-size: 14px;&quot;&gt;НАЗВАНИЕ УЛИЦЫ №3&lt;/font&gt;&lt;/b&gt;" style="rounded=1;whiteSpace=wrap;html=1;" parent="QQCcgWUPPIoVh2ypP03B-1" vertex="1">
          <mxGeometry x="10" y="10" width="236" height="40" as="geometry" />
        </mxCell>
        <mxCell id="QQCcgWUPPIoVh2ypP03B-4" value="" style="rounded=0;whiteSpace=wrap;html=1;strokeWidth=1;perimeterSpacing=0;" parent="QQCcgWUPPIoVh2ypP03B-1" vertex="1">
          <mxGeometry x="87.5" y="167" width="80" height="80" as="geometry" />
        </mxCell>
        <mxCell id="QQCcgWUPPIoVh2ypP03B-5" value="НАЗВАНИЕ КАРТОЧКИ №2" style="swimlane;whiteSpace=wrap;html=1;strokeWidth=10;startSize=41;fontSize=14;strokeColor=none;" parent="AKdSxaKkRiqYq3-DQV_A-1" vertex="1">
          <mxGeometry x="1112" y="8" width="257" height="374" as="geometry" />
        </mxCell>
        <mxCell id="QQCcgWUPPIoVh2ypP03B-6" value="ОБОТНАЯ&lt;div&gt;СТОРОНА&lt;/div&gt;&lt;div&gt;КАРТОЧКИ&lt;/div&gt;" style="text;html=1;align=center;verticalAlign=top;whiteSpace=wrap;rounded=1;strokeColor=#000000;arcSize=4;spacing=6;fontSize=14;" parent="QQCcgWUPPIoVh2ypP03B-5" vertex="1">
          <mxGeometry x="9.5" y="50" width="237" height="314" as="geometry" />
        </mxCell>
        <mxCell id="QQCcgWUPPIoVh2ypP03B-7" value="&lt;b&gt;&lt;font style=&quot;font-size: 14px;&quot;&gt;НАЗВАНИЕ&amp;nbsp;&lt;/font&gt;&lt;/b&gt;&lt;b&gt;&lt;font style=&quot;font-size: 14px;&quot;&gt;УЛИЦЫ&lt;/font&gt;&lt;/b&gt;&lt;b&gt;&lt;font style=&quot;font-size: 14px;&quot;&gt;&amp;nbsp;№2&lt;/font&gt;&lt;/b&gt;" style="rounded=1;whiteSpace=wrap;html=1;" parent="QQCcgWUPPIoVh2ypP03B-5" vertex="1">
          <mxGeometry x="9.5" y="10" width="236" height="40" as="geometry" />
        </mxCell>
        <mxCell id="QQCcgWUPPIoVh2ypP03B-8" value="" style="rounded=0;whiteSpace=wrap;html=1;strokeWidth=1;perimeterSpacing=0;" parent="QQCcgWUPPIoVh2ypP03B-5" vertex="1">
          <mxGeometry x="87.5" y="167" width="80" height="80" as="geometry" />
        </mxCell>
        <mxCell id="QQCcgWUPPIoVh2ypP03B-9" value="НАЗВАНИЕ КАРТОЧКИ №1" style="swimlane;whiteSpace=wrap;html=1;strokeWidth=10;startSize=41;fontSize=14;strokeColor=none;" parent="AKdSxaKkRiqYq3-DQV_A-1" vertex="1">
          <mxGeometry x="1386" y="8" width="257" height="374" as="geometry" />
        </mxCell>
        <mxCell id="QQCcgWUPPIoVh2ypP03B-10" value="ОБОТНАЯ&lt;div&gt;СТОРОНА&lt;/div&gt;&lt;div&gt;КАРТОЧКИ&lt;/div&gt;" style="text;html=1;align=center;verticalAlign=top;whiteSpace=wrap;rounded=1;strokeColor=#000000;arcSize=4;spacing=6;fontSize=14;" parent="QQCcgWUPPIoVh2ypP03B-9" vertex="1">
          <mxGeometry x="9.5" y="50" width="237" height="314" as="geometry" />
        </mxCell>
        <mxCell id="QQCcgWUPPIoVh2ypP03B-11" value="&lt;b&gt;&lt;font style=&quot;font-size: 14px;&quot;&gt;НАЗВАНИЕ&amp;nbsp;&lt;/font&gt;&lt;/b&gt;&lt;b&gt;&lt;font style=&quot;font-size: 14px;&quot;&gt;УЛИЦЫ&lt;/font&gt;&lt;/b&gt;&lt;b&gt;&lt;font style=&quot;font-size: 14px;&quot;&gt;&amp;nbsp;№1&lt;/font&gt;&lt;/b&gt;" style="rounded=1;whiteSpace=wrap;html=1;" parent="QQCcgWUPPIoVh2ypP03B-9" vertex="1">
          <mxGeometry x="10.5" y="10" width="236" height="40" as="geometry" />
        </mxCell>
        <mxCell id="QQCcgWUPPIoVh2ypP03B-12" value="" style="rounded=0;whiteSpace=wrap;html=1;strokeWidth=1;perimeterSpacing=0;" parent="QQCcgWUPPIoVh2ypP03B-9" vertex="1">
          <mxGeometry x="88" y="167" width="80" height="80" as="geometry" />
        </mxCell>
        <mxCell id="QQCcgWUPPIoVh2ypP03B-13" value="НАЗВАНИЕ КАРТОЧКИ №6" style="swimlane;whiteSpace=wrap;html=1;strokeWidth=10;startSize=41;fontSize=14;strokeColor=none;" parent="AKdSxaKkRiqYq3-DQV_A-1" vertex="1">
          <mxGeometry x="836" y="398" width="257" height="374" as="geometry" />
        </mxCell>
        <mxCell id="QQCcgWUPPIoVh2ypP03B-14" value="ОБОТНАЯ&lt;div&gt;СТОРОНА&lt;/div&gt;&lt;div&gt;КАРТОЧКИ&lt;/div&gt;" style="text;html=1;align=center;verticalAlign=top;whiteSpace=wrap;rounded=1;strokeColor=#000000;arcSize=4;spacing=6;fontSize=14;" parent="QQCcgWUPPIoVh2ypP03B-13" vertex="1">
          <mxGeometry x="9" y="50" width="237" height="314" as="geometry" />
        </mxCell>
        <mxCell id="QQCcgWUPPIoVh2ypP03B-15" value="&lt;b&gt;&lt;font style=&quot;font-size: 14px;&quot;&gt;НАЗВАНИЕ&amp;nbsp;&lt;/font&gt;&lt;/b&gt;&lt;b&gt;&lt;font style=&quot;font-size: 14px;&quot;&gt;УЛИЦЫ&lt;/font&gt;&lt;/b&gt;&lt;b&gt;&lt;font style=&quot;font-size: 14px;&quot;&gt;&amp;nbsp;№6&lt;/font&gt;&lt;/b&gt;" style="rounded=1;whiteSpace=wrap;html=1;" parent="QQCcgWUPPIoVh2ypP03B-13" vertex="1">
          <mxGeometry x="9.5" y="10" width="236" height="40" as="geometry" />
        </mxCell>
        <mxCell id="QQCcgWUPPIoVh2ypP03B-16" value="" style="rounded=0;whiteSpace=wrap;html=1;strokeWidth=1;perimeterSpacing=0;" parent="QQCcgWUPPIoVh2ypP03B-13" vertex="1">
          <mxGeometry x="87.5" y="167" width="80" height="80" as="geometry" />
        </mxCell>
        <mxCell id="QQCcgWUPPIoVh2ypP03B-17" value="НАЗВАНИЕ КАРТОЧКИ №4" style="swimlane;whiteSpace=wrap;html=1;strokeWidth=10;startSize=41;fontSize=14;strokeColor=none;" parent="AKdSxaKkRiqYq3-DQV_A-1" vertex="1">
          <mxGeometry x="1112" y="398" width="257" height="374" as="geometry" />
        </mxCell>
        <mxCell id="QQCcgWUPPIoVh2ypP03B-18" value="ОБОТНАЯ&lt;div&gt;СТОРОНА&lt;/div&gt;&lt;div&gt;КАРТОЧКИ&lt;/div&gt;" style="text;html=1;align=center;verticalAlign=top;whiteSpace=wrap;rounded=1;strokeColor=#000000;arcSize=4;spacing=6;fontSize=14;" parent="QQCcgWUPPIoVh2ypP03B-17" vertex="1">
          <mxGeometry x="9.5" y="50" width="237" height="314" as="geometry" />
        </mxCell>
        <mxCell id="QQCcgWUPPIoVh2ypP03B-19" value="&lt;b&gt;&lt;font style=&quot;font-size: 14px;&quot;&gt;НАЗВАНИЕ&amp;nbsp;&lt;/font&gt;&lt;/b&gt;&lt;b&gt;&lt;font style=&quot;font-size: 14px;&quot;&gt;УЛИЦЫ&lt;/font&gt;&lt;/b&gt;&lt;b&gt;&lt;font style=&quot;font-size: 14px;&quot;&gt;&amp;nbsp;№5&lt;/font&gt;&lt;/b&gt;" style="rounded=1;whiteSpace=wrap;html=1;" parent="QQCcgWUPPIoVh2ypP03B-17" vertex="1">
          <mxGeometry x="9.5" y="10" width="236" height="40" as="geometry" />
        </mxCell>
        <mxCell id="QQCcgWUPPIoVh2ypP03B-20" value="" style="rounded=0;whiteSpace=wrap;html=1;strokeWidth=1;perimeterSpacing=0;" parent="QQCcgWUPPIoVh2ypP03B-17" vertex="1">
          <mxGeometry x="87.5" y="167" width="80" height="80" as="geometry" />
        </mxCell>
        <mxCell id="QQCcgWUPPIoVh2ypP03B-21" value="НАЗВАНИЕ КАРТОЧКИ №5" style="swimlane;whiteSpace=wrap;html=1;strokeWidth=10;startSize=41;fontSize=14;strokeColor=none;" parent="AKdSxaKkRiqYq3-DQV_A-1" vertex="1">
          <mxGeometry x="1386" y="398" width="257" height="374" as="geometry" />
        </mxCell>
        <mxCell id="QQCcgWUPPIoVh2ypP03B-22" value="ОБОТНАЯ&lt;div&gt;СТОРОНА&lt;/div&gt;&lt;div&gt;КАРТОЧКИ&lt;/div&gt;" style="text;html=1;align=center;verticalAlign=top;whiteSpace=wrap;rounded=1;strokeColor=#000000;arcSize=4;spacing=6;fontSize=14;" parent="QQCcgWUPPIoVh2ypP03B-21" vertex="1">
          <mxGeometry x="9.5" y="50" width="237" height="314" as="geometry" />
        </mxCell>
        <mxCell id="QQCcgWUPPIoVh2ypP03B-23" value="&lt;b&gt;&lt;font style=&quot;font-size: 14px;&quot;&gt;НАЗВАНИЕ&amp;nbsp;&lt;/font&gt;&lt;/b&gt;&lt;b&gt;&lt;font style=&quot;font-size: 14px;&quot;&gt;УЛИЦЫ&lt;/font&gt;&lt;/b&gt;&lt;b&gt;&lt;font style=&quot;font-size: 14px;&quot;&gt;&amp;nbsp;№4&lt;/font&gt;&lt;/b&gt;" style="rounded=1;whiteSpace=wrap;html=1;" parent="QQCcgWUPPIoVh2ypP03B-21" vertex="1">
          <mxGeometry x="9.5" y="10" width="236" height="40" as="geometry" />
        </mxCell>
        <mxCell id="QQCcgWUPPIoVh2ypP03B-24" value="" style="rounded=0;whiteSpace=wrap;html=1;strokeWidth=1;perimeterSpacing=0;" parent="QQCcgWUPPIoVh2ypP03B-21" vertex="1">
          <mxGeometry x="87.5" y="167" width="80" height="80" as="geometry" />
        </mxCell>
        <mxCell id="QQCcgWUPPIoVh2ypP03B-25" value="НАЗВАНИЕ КАРТОЧКИ №9" style="swimlane;whiteSpace=wrap;html=1;strokeWidth=10;startSize=41;fontSize=14;strokeColor=none;" parent="AKdSxaKkRiqYq3-DQV_A-1" vertex="1">
          <mxGeometry x="836" y="788" width="257" height="374" as="geometry" />
        </mxCell>
        <mxCell id="QQCcgWUPPIoVh2ypP03B-26" value="ОБОТНАЯ&lt;div&gt;СТОРОНА&lt;/div&gt;&lt;div&gt;КАРТОЧКИ&lt;/div&gt;" style="text;html=1;align=center;verticalAlign=top;whiteSpace=wrap;rounded=1;strokeColor=#000000;arcSize=4;spacing=6;fontSize=14;" parent="QQCcgWUPPIoVh2ypP03B-25" vertex="1">
          <mxGeometry x="9" y="50" width="237" height="314" as="geometry" />
        </mxCell>
        <mxCell id="QQCcgWUPPIoVh2ypP03B-27" value="&lt;b&gt;&lt;font style=&quot;font-size: 14px;&quot;&gt;НАЗВАНИЕ&amp;nbsp;&lt;/font&gt;&lt;/b&gt;&lt;b&gt;&lt;font style=&quot;font-size: 14px;&quot;&gt;УЛИЦЫ&lt;/font&gt;&lt;/b&gt;&lt;b&gt;&lt;font style=&quot;font-size: 14px;&quot;&gt;&amp;nbsp;№9&lt;/font&gt;&lt;/b&gt;" style="rounded=1;whiteSpace=wrap;html=1;" parent="QQCcgWUPPIoVh2ypP03B-25" vertex="1">
          <mxGeometry x="9.5" y="10" width="236" height="40" as="geometry" />
        </mxCell>
        <mxCell id="QQCcgWUPPIoVh2ypP03B-28" value="" style="rounded=0;whiteSpace=wrap;html=1;strokeWidth=1;perimeterSpacing=0;" parent="QQCcgWUPPIoVh2ypP03B-25" vertex="1">
          <mxGeometry x="87.5" y="167" width="80" height="80" as="geometry" />
        </mxCell>
        <mxCell id="QQCcgWUPPIoVh2ypP03B-29" value="НАЗВАНИЕ КАРТОЧКИ №8" style="swimlane;whiteSpace=wrap;html=1;strokeWidth=10;startSize=41;fontSize=14;strokeColor=none;" parent="AKdSxaKkRiqYq3-DQV_A-1" vertex="1">
          <mxGeometry x="1112" y="788" width="257" height="374" as="geometry" />
        </mxCell>
        <mxCell id="QQCcgWUPPIoVh2ypP03B-30" value="ОБОТНАЯ&lt;div&gt;СТОРОНА&lt;/div&gt;&lt;div&gt;КАРТОЧКИ&lt;/div&gt;" style="text;html=1;align=center;verticalAlign=top;whiteSpace=wrap;rounded=1;strokeColor=#000000;arcSize=4;spacing=6;fontSize=14;" parent="QQCcgWUPPIoVh2ypP03B-29" vertex="1">
          <mxGeometry x="9.5" y="50" width="237" height="314" as="geometry" />
        </mxCell>
        <mxCell id="QQCcgWUPPIoVh2ypP03B-31" value="&lt;b&gt;&lt;font style=&quot;font-size: 14px;&quot;&gt;НАЗВАНИЕ&amp;nbsp;&lt;/font&gt;&lt;/b&gt;&lt;b&gt;&lt;font style=&quot;font-size: 14px;&quot;&gt;УЛИЦЫ&lt;/font&gt;&lt;/b&gt;&lt;b&gt;&lt;font style=&quot;font-size: 14px;&quot;&gt;&amp;nbsp;№8&lt;/font&gt;&lt;/b&gt;" style="rounded=1;whiteSpace=wrap;html=1;" parent="QQCcgWUPPIoVh2ypP03B-29" vertex="1">
          <mxGeometry x="10" y="10" width="236" height="40" as="geometry" />
        </mxCell>
        <mxCell id="QQCcgWUPPIoVh2ypP03B-32" value="" style="rounded=0;whiteSpace=wrap;html=1;strokeWidth=1;perimeterSpacing=0;" parent="QQCcgWUPPIoVh2ypP03B-29" vertex="1">
          <mxGeometry x="88" y="167" width="80" height="80" as="geometry" />
        </mxCell>
        <mxCell id="QQCcgWUPPIoVh2ypP03B-33" value="НАЗВАНИЕ КАРТОЧКИ №3" style="swimlane;whiteSpace=wrap;html=1;strokeWidth=10;startSize=41;fontSize=14;strokeColor=none;" parent="AKdSxaKkRiqYq3-DQV_A-1" vertex="1">
          <mxGeometry x="1386" y="788" width="257" height="374" as="geometry" />
        </mxCell>
        <mxCell id="QQCcgWUPPIoVh2ypP03B-34" value="ОБОТНАЯ&lt;div&gt;СТОРОНА&lt;/div&gt;&lt;div&gt;КАРТОЧКИ&lt;/div&gt;" style="text;html=1;align=center;verticalAlign=top;whiteSpace=wrap;rounded=1;strokeColor=#000000;arcSize=4;spacing=6;fontSize=14;" parent="QQCcgWUPPIoVh2ypP03B-33" vertex="1">
          <mxGeometry x="9.5" y="50" width="237" height="314" as="geometry" />
        </mxCell>
        <mxCell id="QQCcgWUPPIoVh2ypP03B-35" value="&lt;b&gt;&lt;font style=&quot;font-size: 14px;&quot;&gt;НАЗВАНИЕ&amp;nbsp;&lt;/font&gt;&lt;/b&gt;&lt;b&gt;&lt;font style=&quot;font-size: 14px;&quot;&gt;УЛИЦЫ&lt;/font&gt;&lt;/b&gt;&lt;b&gt;&lt;font style=&quot;font-size: 14px;&quot;&gt;&amp;nbsp;№7&lt;/font&gt;&lt;/b&gt;" style="rounded=1;whiteSpace=wrap;html=1;" parent="QQCcgWUPPIoVh2ypP03B-33" vertex="1">
          <mxGeometry x="9.5" y="10" width="236" height="40" as="geometry" />
        </mxCell>
        <mxCell id="QQCcgWUPPIoVh2ypP03B-36" value="" style="rounded=0;whiteSpace=wrap;html=1;strokeWidth=1;perimeterSpacing=0;" parent="QQCcgWUPPIoVh2ypP03B-33" vertex="1">
          <mxGeometry x="88" y="167" width="80" height="80" as="geometry" />
        </mxCell>
        <mxCell id="QQCcgWUPPIoVh2ypP03B-37" value="" style="rounded=0;whiteSpace=wrap;html=1;fillColor=#d5e8d4;strokeColor=#82b366;" parent="AKdSxaKkRiqYq3-DQV_A-1" vertex="1">
          <mxGeometry x="827" width="53" height="50" as="geometry" />
        </mxCell>
      </root>
    </mxGraphModel>
  </diagram>
</mxfile>
